<?xml version="1.0" encoding="UTF-8" standalone="no"?>
<!-- Created with Inkscape (http://www.inkscape.org/) -->

<svg
   version="1.1"
   width="24.000326"
   height="23.99975"
   id="svg7324"
   xml:space="preserve"
   sodipodi:docname="assist.svg"
   inkscape:version="1.4 (e7c3feb100, 2024-10-09)"
   xmlns:inkscape="http://www.inkscape.org/namespaces/inkscape"
   xmlns:sodipodi="http://sodipodi.sourceforge.net/DTD/sodipodi-0.dtd"
   xmlns="http://www.w3.org/2000/svg"
   xmlns:svg="http://www.w3.org/2000/svg"
   xmlns:rdf="http://www.w3.org/1999/02/22-rdf-syntax-ns#"
   xmlns:cc="http://creativecommons.org/ns#"
   xmlns:dc="http://purl.org/dc/elements/1.1/"><sodipodi:namedview
     id="namedview1"
     pagecolor="#ffffff"
     bordercolor="#000000"
     borderopacity="0.25"
     inkscape:showpageshadow="2"
     inkscape:pageopacity="0.0"
     inkscape:pagecheckerboard="0"
     inkscape:deskcolor="#d1d1d1"
     inkscape:zoom="35.650338"
     inkscape:cx="10.687136"
     inkscape:cy="11.935371"
     inkscape:window-width="1615"
     inkscape:window-height="1080"
     inkscape:window-x="0"
     inkscape:window-y="0"
     inkscape:window-maximized="0"
     inkscape:current-layer="svg7324" /><metadata
     id="metadata66"><rdf:RDF><cc:Work
         rdf:about=""><dc:format>image/svg+xml</dc:format><dc:type
           rdf:resource="http://purl.org/dc/dcmitype/StillImage" /></cc:Work></rdf:RDF></metadata><defs
     id="defs7326" /><g
     id="g1"
     transform="translate(0.0074611,-0.16340871)"><rect
       style="opacity:0.2"
       width="12"
       height="16"
       x="6"
       y="5.5"
       rx="1"
       ry="1"
       id="rect1" /><rect
       style="fill:#8e8e8e"
       width="12"
       height="16"
       x="6"
       y="5"
       rx="1"
       ry="1"
       id="rect2" /><rect
       style="opacity:0.2"
       width="20"
       height="16"
       x="2"
       y="3.5"
       rx="1"
       ry="1"
       id="rect3" /><path
       style="fill:#595959"
       d="m 2,17 v 1 c 0,0.554 0.446,1 1,1 h 18 c 0.554,0 1,-0.446 1,-1 v -1 z"
       id="path3" /><path
       style="fill:#333333"
       d="M 3,3 C 2.446,3 2,3.446 2,4 V 17 H 22 V 4 C 22,3.446 21.554,3 21,3 Z"
       id="path4" /><rect
       style="opacity:0.1;fill:#ffffff"
       width="20"
       height="0.5"
       x="2"
       y="17"
       id="rect4" /><path
       style="opacity:0.1;fill:#ffffff"
       d="M 3,3 C 2.446,3 2,3.446 2,4 v 0.5 c 0,-0.554 0.446,-1 1,-1 h 18 c 0.554,0 1,0.446 1,1 V 4 C 22,3.446 21.554,3 21,3 Z"
       id="path5" /></g><g
     transform="matrix(1.0001358,0,0,0.86609008,1.0063142,1.6115889)"
     id="g13"><path
       fill="#1e88e5"
       d="M 2,2 C 1.446,2 1,2.4341245 1,2.9733733 V 17.573973 H 21 V 2.9733733 C 21,2.4341245 20.554,2 20,2 Z"
       id="path1"
       style="stroke-width:0.986596" /><path
       fill="#ffffff"
       opacity="0.1"
       d="M 2,2 C 1.446,2 1,2.446 1,3 v 0.5 c 0,-0.554 0.446,-1 1,-1 h 18 c 0.554,0 1,0.446 1,1 V 3 C 21,2.446 20.554,2 20,2 Z"
       id="path3-3" /><path
       opacity="0.2"
       d="m 1,19 v 0.5 c 0,0.554 0.446,1 1,1 h 18 c 0.554,0 1,-0.446 1,-1 V 19 c 0,0.554 -0.446,1 -1,1 H 2 C 1.446,20 1,19.554 1,19 Z"
       id="path4-6" /><rect
       opacity="0.2"
       width="8"
       height="6"
       x="7"
       y="8.5"
       rx="0.5"
       ry="0.5"
       id="rect4-7" /><path
       fill="#ffffff"
       d="m 7,9 v 4.5 C 7,13.777 7.223,14 7.5,14 h 7 C 14.777,14 15,13.777 15,13.5 V 9 Z"
       id="path5-5" /><path
       fill="#253951"
       d="m 7.5,8 h 7 C 14.777,8 15,8.223 15,8.5 V 9 H 7 V 8.5 C 7,8.223 7.223,8 7.5,8 Z"
       id="path6" /><g
       opacity="0.2"
       transform="translate(-2,-2.5)"
       id="g9"><rect
         width="2"
         height="2"
         x="4"
         y="6"
         rx="0.25"
         ry="0.25"
         id="rect6" /><rect
         width="2"
         height="2"
         x="4"
         y="9"
         rx="0.25"
         ry="0.25"
         id="rect7" /><rect
         width="2"
         height="2"
         x="4"
         y="12"
         rx="0.25"
         ry="0.25"
         id="rect8" /><rect
         width="2"
         height="2"
         x="4"
         y="15"
         rx="0.25"
         ry="0.25"
         id="rect9" /></g><rect
       fill="#ffffff"
       width="2"
       height="2"
       x="2"
       y="3"
       rx="0.25"
       ry="0.25"
       id="rect10" /><rect
       fill="#ffffff"
       width="2"
       height="2"
       x="2"
       y="6"
       rx="0.25"
       ry="0.25"
       id="rect11" /><rect
       fill="#ffffff"
       width="2"
       height="2"
       x="2"
       y="9"
       rx="0.25"
       ry="0.25"
       id="rect12" /><rect
       fill="#ffffff"
       width="2"
       height="2"
       x="2"
       y="12"
       rx="0.25"
       ry="0.25"
       id="rect13" /></g><g
     id="g2"
     transform="matrix(0.53011598,0,0,0.53011598,12.794506,11.403794)"><path
       style="opacity:0.2"
       d="M 9.637956,7.4750108 A 3.50035,3.50035 0 0 0 6.8078776,12.78751 l 4.6728514,7.951172 a 3.50035,3.50035 0 1 0 6.035156,-3.546875 L 12.843034,9.2406358 A 3.50035,3.50035 0 0 0 9.637956,7.4750108 Z"
       id="path1-3" /><path
       style="fill:none;stroke:#838383;stroke-width:7;stroke-linecap:round"
       d="M 14.498234,18.464959 9.825495,10.513853"
       id="path2" /><path
       style="opacity:0.2"
       d="M 6.1476128,2.5007814 A 2.0983399,2.0013911 0 0 0 4.0000001,4.5007199 V 17.49837 a 2.0983399,2.0013911 0 0 0 3.1472548,1.733864 L 18.949723,12.73341 a 2.0983399,2.0013911 0 0 0 0,-3.4677295 L 7.1472549,2.7668554 A 2.0983399,2.0013911 0 0 0 6.1476128,2.5007814 Z"
       id="path3-6" /><path
       style="fill:#a9a9a9"
       d="M 6.1476128,2.0005519 A 2.0983399,2.0013911 0 0 0 4.0000001,4.0004903 V 16.998141 a 2.0983399,2.0013911 0 0 0 3.1472548,1.733864 L 18.949723,12.23318 a 2.0983399,2.0013911 0 0 0 0,-3.467729 L 7.1472549,2.2666259 A 2.0983399,2.0013911 0 0 0 6.1476128,2.0005519 Z"
       id="path4-7" /><path
       style="opacity:0.2;fill:#ffffff"
       d="m 6.1479168,2.0009765 a 2.0983399,2.0013911 0 0 0 -2.1479167,2 v 0.5 a 2.0983399,2.0013911 0 0 1 2.1479167,-2 2.0983399,2.0013911 0 0 1 0.9989583,0.265625 L 18.949999,9.265625 A 2.0983399,2.0013911 0 0 1 19.981249,10.75 2.0983399,2.0013911 0 0 0 18.949999,8.765625 L 7.1468751,2.2666015 A 2.0983399,2.0013911 0 0 0 6.1479168,2.0009765 Z"
       id="path5-53" /></g></svg>
