<?xml version="1.0" encoding="UTF-8" standalone="no"?>
<svg
   width="32"
   height="32"
   version="1.1"
   id="svg12"
   sodipodi:docname="assist.svg"
   xml:space="preserve"
   inkscape:version="1.4 (e7c3feb100, 2024-10-09)"
   xmlns:inkscape="http://www.inkscape.org/namespaces/inkscape"
   xmlns:sodipodi="http://sodipodi.sourceforge.net/DTD/sodipodi-0.dtd"
   xmlns="http://www.w3.org/2000/svg"
   xmlns:svg="http://www.w3.org/2000/svg"><defs
     id="defs12" /><sodipodi:namedview
     id="namedview12"
     pagecolor="#ffffff"
     bordercolor="#000000"
     borderopacity="0.25"
     inkscape:showpageshadow="2"
     inkscape:pageopacity="0.0"
     inkscape:pagecheckerboard="0"
     inkscape:deskcolor="#d1d1d1"
     inkscape:zoom="26.737475"
     inkscape:cx="16.418903"
     inkscape:cy="17.223018"
     inkscape:window-width="1603"
     inkscape:window-height="1080"
     inkscape:window-x="0"
     inkscape:window-y="0"
     inkscape:window-maximized="0"
     inkscape:current-layer="layer2" /><g
     inkscape:groupmode="layer"
     id="layer2"
     inkscape:label="Layer 1"><g
       id="g12"
       transform="matrix(0.94256445,0,0,0.81587353,-0.07214385,-1.5075355)"><path
         fill="#253951"
         d="m 3.3998,29 c -0.7756,0 -1.4,-0.6194 -1.4,-1.3889 V 26 h 28 v 1.6111 c 0,0.7695 -0.6244,1.3889 -1.4,1.3889 z"
         id="path1" /><path
         fill="#1e88e5"
         d="M 3.4004,4 C 2.6248,4 2,4.6192 2,5.3887 v 20.612 H 30 V 5.3897 C 30,4.6202 29.375,4.001 28.6,4.001 H 3.4 Z"
         id="path2" /><path
         fill="#ffffff"
         opacity="0.1"
         d="M 3.4002,4 C 2.6246,4 1.9998,4.6192 1.9998,5.3887 v 1 C 1.9998,5.6192 2.6246,5 3.4002,5 h 25.2 c 0.775,0 1.4,0.6192 1.4,1.3887 v -1 C 30.0002,4.6192 29.3752,4 28.6002,4 Z"
         id="path3" /><rect
         opacity="0.2"
         width="12"
         height="8"
         x="10"
         y="13"
         rx="0.75"
         ry="0.667"
         id="rect3" /><path
         fill="#ffffff"
         d="m 10,14 v 5.334 C 10,19.703 10.334,20 10.75,20 h 10.5 C 21.666,20 22,19.703 22,19.334 V 14 Z"
         id="path4" /><path
         fill="#253951"
         d="m 10.75,12 h 10.5 C 21.666,12 22,12.297 22,12.667 V 14 H 10 v -1.3333 c 0,-0.36933 0.3345,-0.66667 0.75,-0.66667 z"
         id="path5" /><rect
         opacity="0.2"
         width="3"
         height="3"
         x="3"
         y="18"
         rx="0.375"
         ry="0.375"
         id="rect5" /><rect
         opacity="0.2"
         width="3"
         height="3"
         x="3"
         y="6"
         rx="0.375"
         ry="0.375"
         id="rect6" /><rect
         fill="#ffffff"
         width="3"
         height="3"
         x="3"
         y="5"
         rx="0.375"
         ry="0.375"
         id="rect7" /><rect
         opacity="0.2"
         width="3"
         height="3"
         x="3"
         y="10"
         rx="0.375"
         ry="0.375"
         id="rect8" /><rect
         fill="#ffffff"
         width="3"
         height="3"
         x="3"
         y="9"
         rx="0.375"
         ry="0.375"
         id="rect9" /><rect
         opacity="0.2"
         width="3"
         height="3"
         x="3"
         y="14"
         rx="0.375"
         ry="0.375"
         id="rect10" /><rect
         fill="#ffffff"
         width="3"
         height="3"
         x="3"
         y="13"
         rx="0.375"
         ry="0.375"
         id="rect11" /><rect
         fill="#ffffff"
         width="3"
         height="3"
         x="3"
         y="17"
         rx="0.375"
         ry="0.375"
         id="rect12" /><path
         opacity="0.2"
         d="m 2,27.611 v 1 C 2,29.381 2.6248,30 3.4004,30 h 25.2 c 0.775,0 1.4,-0.619 1.4,-1.389 v -1 c 0,0.77 -0.625,1.389 -1.4,1.389 h -25.2 c -0.7752,0 -1.4,-0.619 -1.4,-1.389 z"
         id="path12" /></g></g><g
     inkscape:groupmode="layer"
     id="layer3"
     inkscape:label="Layer 2"><g
       id="g13"
       transform="matrix(0.27730167,0,0,0.27730167,15.214644,13.350167)"><path
         style="opacity:0.2"
         d="m 25.546876,18.906419 a 9.8009802,9.8009802 0 0 0 -7.925782,14.875 L 30.707032,56.043137 A 9.8009802,9.8009802 0 1 0 47.605468,46.113451 L 34.519532,23.851731 a 9.8009802,9.8009802 0 0 0 -8.972656,-4.945312 z"
         id="path1-6" /><path
         style="fill:none;stroke:#838383;stroke-width:19.6;stroke-linecap:round"
         d="M 39.154872,50.079529 26.071202,27.816433"
         id="path2-7" /><path
         style="opacity:0.2"
         d="M 16.637484,5.0017276 A 5.5081426,5.6509866 0 0 0 11,10.648612 v 36.699249 a 5.5081426,5.6509866 0 0 0 8.261544,4.895616 l 30.98148,-18.349624 a 5.5081426,5.6509866 0 0 0 0,-9.791234 L 19.261544,5.7529954 a 5.5081426,5.6509866 0 0 0 -2.62406,-0.7512678 z"
         id="path3-5" /><path
         style="fill:#a9a9a9"
         d="M 16.637484,4.0015578 A 5.5081426,5.6509866 0 0 0 11,9.648443 v 36.699248 a 5.5081426,5.6509866 0 0 0 8.261544,4.895616 l 30.98148,-18.349624 a 5.5081426,5.6509866 0 0 0 0,-9.791234 L 19.261544,4.7528256 a 5.5081426,5.6509866 0 0 0 -2.62406,-0.7512678 z"
         id="path4-3" /><path
         style="opacity:0.2;fill:#ffffff"
         d="M 16.636719,4 A 5.5081426,5.6509866 0 0 0 11,9.6484375 V 10.648438 A 5.5081426,5.6509866 0 0 1 16.636719,5 a 5.5081426,5.6509866 0 0 1 2.625,0.7539062 L 50.242188,24.101562 a 5.5081426,5.6509866 0 0 1 2.728515,4.41211 5.5081426,5.6509866 0 0 0 -2.728515,-5.41211 L 19.261719,4.7539062 A 5.5081426,5.6509866 0 0 0 16.636719,4 Z"
         id="path5-5" /></g></g></svg>
