<?xml version="1.0" encoding="UTF-8" standalone="no"?>
<svg
   width="64"
   height="64"
   version="1.1"
   id="svg12"
   xml:space="preserve"
   sodipodi:docname="broadcast_stop.svg"
   inkscape:export-filename="broadcast_windowed.png"
   inkscape:export-xdpi="96"
   inkscape:export-ydpi="96"
   inkscape:version="1.4 (e7c3feb100, 2024-10-09)"
   xmlns:inkscape="http://www.inkscape.org/namespaces/inkscape"
   xmlns:sodipodi="http://sodipodi.sourceforge.net/DTD/sodipodi-0.dtd"
   xmlns="http://www.w3.org/2000/svg"
   xmlns:svg="http://www.w3.org/2000/svg"><sodipodi:namedview
     id="namedview1"
     pagecolor="#ffffff"
     bordercolor="#000000"
     borderopacity="0.25"
     inkscape:showpageshadow="2"
     inkscape:pageopacity="0.0"
     inkscape:pagecheckerboard="0"
     inkscape:deskcolor="#d1d1d1"
     inkscape:zoom="9.453125"
     inkscape:cx="32.052893"
     inkscape:cy="25.652893"
     inkscape:window-width="1603"
     inkscape:window-height="1080"
     inkscape:window-x="0"
     inkscape:window-y="0"
     inkscape:window-maximized="0"
     inkscape:current-layer="layer4" /><defs
     id="defs12"><style
       id="current-color-scheme"
       type="text/css">
   .ColorScheme-Text { color:#444444; } .ColorScheme-Highlight { color:#4285f4; } .ColorScheme-NeutralText { color:#ff9800; } .ColorScheme-PositiveText { color:#4caf50; } .ColorScheme-NegativeText { color:#f44336; }
  </style><style
       id="current-color-scheme-9"
       type="text/css">
   .ColorScheme-Text { color:#444444; } .ColorScheme-Highlight { color:#4285f4; } .ColorScheme-NeutralText { color:#ff9800; } .ColorScheme-PositiveText { color:#4caf50; } .ColorScheme-NegativeText { color:#f44336; }
  </style></defs><g
     id="layer3"><g
       id="g37"
       transform="matrix(0.60330862,0,0,0.52500405,-1.3752976,-2.1758553)"
       style="stroke:none"><path
         style="fill:#253951;stroke:none"
         d="m 6.7998,57 c -1.5512,0 -2.8,-1.2388 -2.8,-2.7778 V 51 h 56 v 3.2222 c 0,1.539 -1.2488,2.7778 -2.8,2.7778 z"
         id="path13" /><path
         style="fill:#1e88e5;stroke:none;stroke-width:0.644994;stroke-linecap:round;stroke-dasharray:none;stroke-dashoffset:0;stroke-opacity:1;paint-order:markers stroke fill"
         d="M 6.801,7 C 5.2498,7 4.0002,8.238361 4.0002,9.777312 V 51 h 56 V 9.779312 c 0,-1.538951 -1.25,-2.777312 -2.8,-2.777312 h -50.4 z"
         id="path14" /><path
         style="opacity:0.1;fill:#ffffff;stroke:none"
         d="M 6.8007812,7 C 5.2496034,7 4,8.2383437 4,9.7773438 V 10.777344 C 4,9.2383437 5.2496034,8 6.8007812,8 H 57.199219 C 58.749197,8 60,9.2383438 60,10.777344 V 9.7773438 C 60,8.2383438 58.749197,7 57.199219,7 Z"
         id="path15" /><rect
         style="opacity:0.2;stroke:none"
         width="24"
         height="16"
         x="20"
         y="24"
         rx="1.5"
         ry="1.334"
         id="rect15" /><path
         style="fill:#ffffff;stroke:none"
         d="m 20.0002,27 v 10.668 c 0,0.738 0.668,1.332 1.5,1.332 h 21 c 0.832,0 1.5,-0.594 1.5,-1.332 V 27 Z"
         id="path16" /><path
         style="fill:#253951;stroke:none"
         d="m 21.5002,23 h 21 c 0.832,0 1.5,0.594 1.5,1.334 V 27 h -24 v -2.6666 c 0,-0.73866 0.669,-1.33334 1.5,-1.33334 z"
         id="path17" /><rect
         style="opacity:0.2;stroke:none"
         width="6"
         height="6"
         x="6"
         y="34"
         rx="0.75"
         ry="0.75"
         id="rect17" /><rect
         style="opacity:0.2;stroke:none"
         width="6"
         height="6"
         x="6"
         y="10"
         rx="0.75"
         ry="0.75"
         id="rect18" /><rect
         style="fill:#ffffff;stroke:none"
         width="6"
         height="6"
         x="6"
         y="9"
         rx="0.75"
         ry="0.75"
         id="rect19" /><rect
         style="opacity:0.2;stroke:none"
         width="6"
         height="6"
         x="6"
         y="18"
         rx="0.75"
         ry="0.75"
         id="rect20" /><rect
         style="fill:#ffffff;stroke:none"
         width="6"
         height="6"
         x="6"
         y="17"
         rx="0.75"
         ry="0.75"
         id="rect21" /><rect
         style="opacity:0.2;stroke:none"
         width="6"
         height="6"
         x="6"
         y="26"
         rx="0.75"
         ry="0.75"
         id="rect22" /><rect
         style="fill:#ffffff;stroke:none"
         width="6"
         height="6"
         x="6"
         y="25"
         rx="0.75"
         ry="0.75"
         id="rect23" /><rect
         style="fill:#ffffff;stroke:none"
         width="6"
         height="6"
         x="6"
         y="33"
         rx="0.75"
         ry="0.75"
         id="rect24" /><path
         style="opacity:0.2;stroke:none"
         d="m 4,54.222656 v 1 C 4,56.762656 5.2496034,58 6.8007812,58 H 57.201172 C 58.75115,58 60,56.762656 60,55.222656 v -1 C 60,55.762656 58.75115,57 57.201172,57 H 6.8007812 C 5.2496034,57 4,55.762656 4,54.222656 Z"
         id="path24" /><path
         style="opacity:0.2;stroke:none;stroke-width:1.0001"
         d="m 4,54.222656 v 1 C 4,56.762656 5.2498479,58 6.8013293,58 H 57.211583 c 1.550281,0 2.799376,-1.237344 2.799376,-2.777344 v -1 c 0,1.54 -1.249095,2.777344 -2.799376,2.777344 H 6.8013293 C 5.2498479,57 4,55.762656 4,54.222656 Z"
         id="path37" /></g></g><g
     id="layer1"><g
       id="g36"
       transform="matrix(0.60330862,0,0,0.52500405,27.186686,6.4985248)"><path
         style="opacity:0.2;stroke-width:0.880497"
         d="m 6.5400255,7.04 h -0.8608 c -1.3278298,0 -2.399251,1.126366 -2.399251,2.5182979 V 54.841872 c 0,1.391932 1.0714212,2.518298 2.399251,2.518298 h 0.8608 c -1.3278298,0 -2.399251,-1.126366 -2.399251,-2.518298 V 9.5582979 C 4.1407745,8.166366 5.2121957,7.04 6.5400255,7.04 Z"
         id="path36" /><path
         style="fill:#253951"
         d="m 6.7998,57 c -1.5512,0 -2.8,-1.2388 -2.8,-2.7778 V 51 h 56 v 3.2222 c 0,1.539 -1.2488,2.7778 -2.8,2.7778 z"
         id="path25" /><path
         style="fill:#1e88e5"
         d="M 6.801,7 C 5.2498,7 4.0002,8.238361 4.0002,9.777312 V 51 h 56 V 9.779312 c 0,-1.538951 -1.25,-2.777312 -2.8,-2.777312 h -50.4 z"
         id="path26" /><path
         style="opacity:0.1;fill:#ffffff"
         d="M 6.8007812,7 C 5.2496034,7 4,8.2383437 4,9.7773438 V 10.777344 C 4,9.2383437 5.2496034,8 6.8007812,8 H 57.199219 C 58.749197,8 60,9.2383438 60,10.777344 V 9.7773438 C 60,8.2383438 58.749197,7 57.199219,7 Z"
         id="path27" /><rect
         style="opacity:0.2"
         width="24"
         height="16"
         x="20"
         y="24"
         rx="1.5"
         ry="1.334"
         id="rect27" /><path
         style="fill:#ffffff"
         d="m 20.0002,27 v 10.668 c 0,0.738 0.668,1.332 1.5,1.332 h 21 c 0.832,0 1.5,-0.594 1.5,-1.332 V 27 Z"
         id="path28" /><path
         style="fill:#253951"
         d="m 21.5002,23 h 21 c 0.832,0 1.5,0.594 1.5,1.334 V 27 h -24 v -2.6666 c 0,-0.73866 0.669,-1.33334 1.5,-1.33334 z"
         id="path29" /><rect
         style="opacity:0.2"
         width="6"
         height="6"
         x="6"
         y="34"
         rx="0.75"
         ry="0.75"
         id="rect29" /><rect
         style="opacity:0.2"
         width="6"
         height="6"
         x="6"
         y="10"
         rx="0.75"
         ry="0.75"
         id="rect30" /><rect
         style="fill:#ffffff"
         width="6"
         height="6"
         x="6"
         y="9"
         rx="0.75"
         ry="0.75"
         id="rect31" /><rect
         style="opacity:0.2"
         width="6"
         height="6"
         x="6"
         y="18"
         rx="0.75"
         ry="0.75"
         id="rect32" /><rect
         style="fill:#ffffff"
         width="6"
         height="6"
         x="6"
         y="17"
         rx="0.75"
         ry="0.75"
         id="rect33" /><rect
         style="opacity:0.2"
         width="6"
         height="6"
         x="6"
         y="26"
         rx="0.75"
         ry="0.75"
         id="rect34" /><rect
         style="fill:#ffffff"
         width="6"
         height="6"
         x="6"
         y="25"
         rx="0.75"
         ry="0.75"
         id="rect35" /><rect
         style="fill:#ffffff"
         width="6"
         height="6"
         x="6"
         y="33"
         rx="0.75"
         ry="0.75"
         id="rect36" /><path
         style="opacity:0.2"
         d="m 4,54.222656 v 1 C 4,56.762656 5.2496034,58 6.8007812,58 H 57.201172 C 58.75115,58 60,56.762656 60,55.222656 v -1 C 60,55.762656 58.75115,57 57.201172,57 H 6.8007812 C 5.2496034,57 4,55.762656 4,54.222656 Z"
         id="path42" /></g></g><g
     id="layer2"><g
       id="g12"
       transform="matrix(0.60330862,0,0,0.52500405,10.895777,28.184475)"><path
         style="fill:#253951"
         d="m 6.7998,57 c -1.5512,0 -2.8,-1.2388 -2.8,-2.7778 V 51 h 56 v 3.2222 c 0,1.539 -1.2488,2.7778 -2.8,2.7778 z"
         id="path1" /><path
         style="fill:#1e88e5"
         d="M 6.801,7 C 5.2498,7 4.0002,8.238361 4.0002,9.777312 V 51 h 56 V 9.779312 c 0,-1.538951 -1.25,-2.777312 -2.8,-2.777312 h -50.4 z"
         id="path2" /><path
         style="opacity:0.1;fill:#ffffff"
         d="M 6.8007812,7 C 5.2496034,7 4,8.2383437 4,9.7773438 V 10.777344 C 4,9.2383437 5.2496034,8 6.8007812,8 H 57.199219 C 58.749197,8 60,9.2383438 60,10.777344 V 9.7773438 C 60,8.2383438 58.749197,7 57.199219,7 Z"
         id="path3" /><rect
         style="opacity:0.2"
         width="24"
         height="16"
         x="20"
         y="24"
         rx="1.5"
         ry="1.334"
         id="rect3" /><path
         style="fill:#ffffff"
         d="m 20.0002,27 v 10.668 c 0,0.738 0.668,1.332 1.5,1.332 h 21 c 0.832,0 1.5,-0.594 1.5,-1.332 V 27 Z"
         id="path4" /><path
         style="fill:#253951"
         d="m 21.5002,23 h 21 c 0.832,0 1.5,0.594 1.5,1.334 V 27 h -24 v -2.6666 c 0,-0.73866 0.669,-1.33334 1.5,-1.33334 z"
         id="path5" /><rect
         style="opacity:0.2"
         width="6"
         height="6"
         x="6"
         y="34"
         rx="0.75"
         ry="0.75"
         id="rect5" /><rect
         style="opacity:0.2"
         width="6"
         height="6"
         x="6"
         y="10"
         rx="0.75"
         ry="0.75"
         id="rect6" /><rect
         style="fill:#ffffff"
         width="6"
         height="6"
         x="6"
         y="9"
         rx="0.75"
         ry="0.75"
         id="rect7" /><rect
         style="opacity:0.2"
         width="6"
         height="6"
         x="6"
         y="18"
         rx="0.75"
         ry="0.75"
         id="rect8" /><rect
         style="fill:#ffffff"
         width="6"
         height="6"
         x="6"
         y="17"
         rx="0.75"
         ry="0.75"
         id="rect9" /><rect
         style="opacity:0.2"
         width="6"
         height="6"
         x="6"
         y="26"
         rx="0.75"
         ry="0.75"
         id="rect10" /><rect
         style="fill:#ffffff"
         width="6"
         height="6"
         x="6"
         y="25"
         rx="0.75"
         ry="0.75"
         id="rect11" /><rect
         style="fill:#ffffff"
         width="6"
         height="6"
         x="6"
         y="33"
         rx="0.75"
         ry="0.75"
         id="rect12" /><path
         style="opacity:0.2"
         d="m 4,54.222656 v 1 C 4,56.762656 5.2496034,58 6.8007812,58 H 57.201172 C 58.75115,58 60,56.762656 60,55.222656 v -1 C 60,55.762656 58.75115,57 57.201172,57 H 6.8007812 C 5.2496034,57 4,55.762656 4,54.222656 Z"
         id="path12" /><path
         style="opacity:0.2"
         d="m 4,9.7801977 v -1 c 0,-1.54 1.2496034,-2.777344 2.8007812,-2.777344 H 57.201171 c 1.549978,0 2.798828,1.237344 2.798828,2.777344 v 1 c 0,-1.54 -1.24885,-2.777344 -2.798828,-2.777344 H 6.8007812 C 5.2496034,7.0028537 4,8.2401977 4,9.7801977 Z"
         id="path41" /></g></g><g
     id="layer4"
     transform="matrix(1.1988738,0,0,1.1988738,-12.330174,-12.379893)"><path
       style="fill:#f30000;fill-opacity:1;stroke-width:1.23748"
       class="ColorScheme-Text"
       d="m 53.31416,44.522274 a 8.6623997,8.6623997 0 0 0 -8.662399,8.6624 8.6623997,8.6623997 0 0 0 8.662399,8.662399 8.6623997,8.6623997 0 0 0 8.662401,-8.662399 8.6623997,8.6623997 0 0 0 -8.662401,-8.6624 z m -3.712457,4.949941 h 1.237486 c 0.346497,0 0.669109,0.123999 0.891857,0.347982 l 1.583114,1.580764 1.583116,-1.580764 c 0.222748,-0.223984 0.54536,-0.347982 0.891857,-0.347982 h 1.237485 v 1.237488 c 0,0.341545 -0.122515,0.665395 -0.345258,0.889503 l -1.585838,1.585468 1.585838,1.585467 c 0.222746,0.22386 0.345258,0.547834 0.345258,0.889504 v 1.237485 h -1.237485 c -0.346497,0 -0.669109,-0.123746 -0.891857,-0.347733 l -1.583116,-1.590664 -1.583114,1.590664 c -0.222748,0.223985 -0.54536,0.347733 -0.891857,0.347733 h -1.237486 v -1.237485 c 0,-0.34167 0.122886,-0.665519 0.345631,-0.889504 l 1.585465,-1.585467 -1.585465,-1.585468 c -0.222748,-0.224108 -0.345631,-0.547958 -0.345631,-0.889503 z"
       id="path1-3" /></g></svg>
