<?xml version="1.0" encoding="UTF-8" standalone="no"?>
<!-- Created with Inkscape (http://www.inkscape.org/) -->

<svg
   version="1.1"
   width="24.000326"
   height="23.99975"
   id="svg7324"
   xml:space="preserve"
   sodipodi:docname="broadcast-stop.svg"
   inkscape:version="1.4 (e7c3feb100, 2024-10-09)"
   xmlns:inkscape="http://www.inkscape.org/namespaces/inkscape"
   xmlns:sodipodi="http://sodipodi.sourceforge.net/DTD/sodipodi-0.dtd"
   xmlns="http://www.w3.org/2000/svg"
   xmlns:svg="http://www.w3.org/2000/svg"
   xmlns:rdf="http://www.w3.org/1999/02/22-rdf-syntax-ns#"
   xmlns:cc="http://creativecommons.org/ns#"
   xmlns:dc="http://purl.org/dc/elements/1.1/"><sodipodi:namedview
     id="namedview1"
     pagecolor="#ffffff"
     bordercolor="#000000"
     borderopacity="0.25"
     inkscape:showpageshadow="2"
     inkscape:pageopacity="0.0"
     inkscape:pagecheckerboard="0"
     inkscape:deskcolor="#d1d1d1"
     inkscape:zoom="32"
     inkscape:cx="12.015625"
     inkscape:cy="13.96875"
     inkscape:window-width="2560"
     inkscape:window-height="1413"
     inkscape:window-x="0"
     inkscape:window-y="0"
     inkscape:window-maximized="1"
     inkscape:current-layer="svg7324" /><metadata
     id="metadata66"><rdf:RDF><cc:Work
         rdf:about=""><dc:format>image/svg+xml</dc:format><dc:type
           rdf:resource="http://purl.org/dc/dcmitype/StillImage" /></cc:Work></rdf:RDF></metadata><defs
     id="defs7326" /><g
     id="layer2"
     transform="matrix(1.0369732,0,0,1.0369732,-0.54459765,-2.9395401)"><g
       id="g2"
       transform="matrix(0.55011013,0,0,0.55011013,-0.42070366,1.4084922)"><g
         id="g1"
         transform="translate(0.0074611,-0.16340871)"><rect
           style="opacity:0.2"
           width="12"
           height="16"
           x="6"
           y="5.5"
           rx="1"
           ry="1"
           id="rect1" /><rect
           style="fill:#8e8e8e"
           width="12"
           height="16"
           x="6"
           y="5"
           rx="1"
           ry="1"
           id="rect2" /><rect
           style="opacity:0.2"
           width="20"
           height="16"
           x="2"
           y="3.5"
           rx="1"
           ry="1"
           id="rect3" /><path
           style="fill:#595959"
           d="m 2,17 v 1 c 0,0.554 0.446,1 1,1 h 18 c 0.554,0 1,-0.446 1,-1 v -1 z"
           id="path3" /><path
           style="fill:#333333"
           d="M 3,3 C 2.446,3 2,3.446 2,4 V 17 H 22 V 4 C 22,3.446 21.554,3 21,3 Z"
           id="path4" /><rect
           style="opacity:0.1;fill:#ffffff"
           width="20"
           height="0.5"
           x="2"
           y="17"
           id="rect4" /><path
           style="opacity:0.1;fill:#ffffff"
           d="M 3,3 C 2.446,3 2,3.446 2,4 v 0.5 c 0,-0.554 0.446,-1 1,-1 h 18 c 0.554,0 1,0.446 1,1 V 4 C 22,3.446 21.554,3 21,3 Z"
           id="path5" /></g><path
         fill="#1e88e5"
         d="M 2,2 C 1.446,2 1,2.4341245 1,2.9733733 V 17.573973 H 21 V 2.9733733 C 21,2.4341245 20.554,2 20,2 Z"
         id="path1"
         style="stroke-width:0.986596"
         transform="matrix(1.0001358,0,0,0.86609008,1.0063142,1.6115889)" /><path
         fill="#ffffff"
         opacity="0.1"
         d="M 2,2 C 1.446,2 1,2.446 1,3 v 0.5 c 0,-0.554 0.446,-1 1,-1 h 18 c 0.554,0 1,0.446 1,1 V 3 C 21,2.446 20.554,2 20,2 Z"
         id="path3-3"
         transform="matrix(1.0001358,0,0,0.86609008,1.0063142,1.6115889)" /><rect
         opacity="0.2"
         width="8"
         height="6"
         x="7"
         y="8.5"
         rx="0.5"
         ry="0.5"
         id="rect4-7"
         transform="matrix(1.0001358,0,0,0.86609008,1.0063142,1.6115889)" /><path
         fill="#ffffff"
         d="m 7,9 v 4.5 C 7,13.777 7.223,14 7.5,14 h 7 C 14.777,14 15,13.777 15,13.5 V 9 Z"
         id="path5-5"
         transform="matrix(1.0001358,0,0,0.86609008,1.0063142,1.6115889)" /><path
         fill="#253951"
         d="m 7.5,8 h 7 C 14.777,8 15,8.223 15,8.5 V 9 H 7 V 8.5 C 7,8.223 7.223,8 7.5,8 Z"
         id="path6"
         transform="matrix(1.0001358,0,0,0.86609008,1.0063142,1.6115889)" /><g
         opacity="0.2"
         transform="matrix(1.0001358,0,0,0.86609008,-0.9939574,-0.5536363)"
         id="g9"><rect
           width="2"
           height="2"
           x="4"
           y="6"
           rx="0.25"
           ry="0.25"
           id="rect6" /><rect
           width="2"
           height="2"
           x="4"
           y="9"
           rx="0.25"
           ry="0.25"
           id="rect7" /><rect
           width="2"
           height="2"
           x="4"
           y="12"
           rx="0.25"
           ry="0.25"
           id="rect8" /><rect
           width="2"
           height="2"
           x="4"
           y="15"
           rx="0.25"
           ry="0.25"
           id="rect9" /></g><rect
         fill="#ffffff"
         width="2"
         height="2"
         x="2"
         y="3"
         rx="0.25"
         ry="0.25"
         id="rect10"
         transform="matrix(1.0001358,0,0,0.86609008,1.0063142,1.6115889)" /><rect
         fill="#ffffff"
         width="2"
         height="2"
         x="2"
         y="6"
         rx="0.25"
         ry="0.25"
         id="rect11"
         transform="matrix(1.0001358,0,0,0.86609008,1.0063142,1.6115889)" /><rect
         fill="#ffffff"
         width="2"
         height="2"
         x="2"
         y="9"
         rx="0.25"
         ry="0.25"
         id="rect12"
         transform="matrix(1.0001358,0,0,0.86609008,1.0063142,1.6115889)" /><rect
         fill="#ffffff"
         width="2"
         height="2"
         x="2"
         y="12"
         rx="0.25"
         ry="0.25"
         id="rect13"
         transform="matrix(1.0001358,0,0,0.86609008,1.0063142,1.6115889)" /><g
         transform="matrix(1.0001358,0,0,0.86609008,1.0063142,1.6115889)"
         id="g13" /></g></g><g
     id="layer3"
     transform="matrix(1.0240978,0,0,1.0240978,0.12604364,-2.8003434)"><g
       id="g47"
       transform="matrix(0.55011013,0,0,0.55011013,11.059663,1.3423229)"><g
         id="g34"
         transform="translate(0.0074611,-0.16340871)"><rect
           style="opacity:0.2"
           width="12"
           height="16"
           x="6"
           y="5.5"
           rx="1"
           ry="1"
           id="rect30" /><rect
           style="fill:#8e8e8e"
           width="12"
           height="16"
           x="6"
           y="5"
           rx="1"
           ry="1"
           id="rect31" /><rect
           style="opacity:0.2"
           width="20"
           height="16"
           x="2"
           y="3.5"
           rx="1"
           ry="1"
           id="rect32" /><path
           style="fill:#595959"
           d="m 2,17 v 1 c 0,0.554 0.446,1 1,1 h 18 c 0.554,0 1,-0.446 1,-1 v -1 z"
           id="path32" /><path
           style="fill:#333333"
           d="M 3,3 C 2.446,3 2,3.446 2,4 V 17 H 22 V 4 C 22,3.446 21.554,3 21,3 Z"
           id="path33" /><rect
           style="opacity:0.1;fill:#ffffff"
           width="20"
           height="0.5"
           x="2"
           y="17"
           id="rect33" /><path
           style="opacity:0.1;fill:#ffffff"
           d="M 3,3 C 2.446,3 2,3.446 2,4 v 0.5 c 0,-0.554 0.446,-1 1,-1 h 18 c 0.554,0 1,0.446 1,1 V 4 C 22,3.446 21.554,3 21,3 Z"
           id="path34" /></g><path
         fill="#1e88e5"
         d="M 2,2 C 1.446,2 1,2.4341245 1,2.9733733 V 17.573973 H 21 V 2.9733733 C 21,2.4341245 20.554,2 20,2 Z"
         id="path35"
         style="stroke-width:0.986596"
         transform="matrix(1.0001358,0,0,0.86609008,1.0063142,1.6115889)" /><path
         fill="#ffffff"
         opacity="0.1"
         d="M 2,2 C 1.446,2 1,2.446 1,3 v 0.5 c 0,-0.554 0.446,-1 1,-1 h 18 c 0.554,0 1,0.446 1,1 V 3 C 21,2.446 20.554,2 20,2 Z"
         id="path36"
         transform="matrix(1.0001358,0,0,0.86609008,1.0063142,1.6115889)" /><rect
         opacity="0.2"
         width="8"
         height="6"
         x="7"
         y="8.5"
         rx="0.5"
         ry="0.5"
         id="rect37"
         transform="matrix(1.0001358,0,0,0.86609008,1.0063142,1.6115889)" /><path
         fill="#ffffff"
         d="m 7,9 v 4.5 C 7,13.777 7.223,14 7.5,14 h 7 C 14.777,14 15,13.777 15,13.5 V 9 Z"
         id="path38"
         transform="matrix(1.0001358,0,0,0.86609008,1.0063142,1.6115889)" /><path
         fill="#253951"
         d="m 7.5,8 h 7 C 14.777,8 15,8.223 15,8.5 V 9 H 7 V 8.5 C 7,8.223 7.223,8 7.5,8 Z"
         id="path39"
         transform="matrix(1.0001358,0,0,0.86609008,1.0063142,1.6115889)" /><g
         opacity="0.2"
         transform="matrix(1.0001358,0,0,0.86609008,-0.9939574,-0.5536363)"
         id="g42"><rect
           width="2"
           height="2"
           x="4"
           y="6"
           rx="0.25"
           ry="0.25"
           id="rect39" /><rect
           width="2"
           height="2"
           x="4"
           y="9"
           rx="0.25"
           ry="0.25"
           id="rect40" /><rect
           width="2"
           height="2"
           x="4"
           y="12"
           rx="0.25"
           ry="0.25"
           id="rect41" /><rect
           width="2"
           height="2"
           x="4"
           y="15"
           rx="0.25"
           ry="0.25"
           id="rect42" /></g><rect
         fill="#ffffff"
         width="2"
         height="2"
         x="2"
         y="3"
         rx="0.25"
         ry="0.25"
         id="rect43"
         transform="matrix(1.0001358,0,0,0.86609008,1.0063142,1.6115889)" /><rect
         fill="#ffffff"
         width="2"
         height="2"
         x="2"
         y="6"
         rx="0.25"
         ry="0.25"
         id="rect44"
         transform="matrix(1.0001358,0,0,0.86609008,1.0063142,1.6115889)" /><rect
         fill="#ffffff"
         width="2"
         height="2"
         x="2"
         y="9"
         rx="0.25"
         ry="0.25"
         id="rect45"
         transform="matrix(1.0001358,0,0,0.86609008,1.0063142,1.6115889)" /><rect
         fill="#ffffff"
         width="2"
         height="2"
         x="2"
         y="12"
         rx="0.25"
         ry="0.25"
         id="rect46"
         transform="matrix(1.0001358,0,0,0.86609008,1.0063142,1.6115889)" /><g
         transform="matrix(1.0001358,0,0,0.86609008,1.0063142,1.6115889)"
         id="g46" /></g></g><g
     id="layer1"
     transform="matrix(1.3474031,0,0,1.3474031,-3.9695985,-5.8326796)"><g
       id="g30"
       transform="matrix(0.55011013,0,0,0.55011013,5.1705988,9.8252939)"><g
         id="g17"
         transform="translate(0.0074611,-0.16340871)"><rect
           style="opacity:0.2"
           width="12"
           height="16"
           x="6"
           y="5.5"
           rx="1"
           ry="1"
           id="rect5" /><rect
           style="fill:#8e8e8e"
           width="12"
           height="16"
           x="6"
           y="5"
           rx="1"
           ry="1"
           id="rect14" /><rect
           style="opacity:0.2"
           width="20"
           height="16"
           x="2"
           y="3.5"
           rx="1"
           ry="1"
           id="rect15" /><path
           style="fill:#595959"
           d="m 2,17 v 1 c 0,0.554 0.446,1 1,1 h 18 c 0.554,0 1,-0.446 1,-1 v -1 z"
           id="path15" /><path
           style="fill:#333333"
           d="M 3,3 C 2.446,3 2,3.446 2,4 V 17 H 22 V 4 C 22,3.446 21.554,3 21,3 Z"
           id="path16" /><rect
           style="opacity:0.1;fill:#ffffff"
           width="20"
           height="0.5"
           x="2"
           y="17"
           id="rect16" /><path
           style="opacity:0.1;fill:#ffffff"
           d="M 3,3 C 2.446,3 2,3.446 2,4 v 0.5 c 0,-0.554 0.446,-1 1,-1 h 18 c 0.554,0 1,0.446 1,1 V 4 C 22,3.446 21.554,3 21,3 Z"
           id="path17" /></g><path
         fill="#1e88e5"
         d="M 2,2 C 1.446,2 1,2.4341245 1,2.9733733 V 17.573973 H 21 V 2.9733733 C 21,2.4341245 20.554,2 20,2 Z"
         id="path18"
         style="stroke-width:0.986596"
         transform="matrix(1.0001358,0,0,0.86609008,1.0063142,1.6115889)" /><path
         fill="#ffffff"
         opacity="0.1"
         d="M 2,2 C 1.446,2 1,2.446 1,3 v 0.5 c 0,-0.554 0.446,-1 1,-1 h 18 c 0.554,0 1,0.446 1,1 V 3 C 21,2.446 20.554,2 20,2 Z"
         id="path19"
         transform="matrix(1.0001358,0,0,0.86609008,1.0063142,1.6115889)" /><rect
         opacity="0.2"
         width="8"
         height="6"
         x="7"
         y="8.5"
         rx="0.5"
         ry="0.5"
         id="rect20"
         transform="matrix(1.0001358,0,0,0.86609008,1.0063142,1.6115889)" /><path
         fill="#ffffff"
         d="m 7,9 v 4.5 C 7,13.777 7.223,14 7.5,14 h 7 C 14.777,14 15,13.777 15,13.5 V 9 Z"
         id="path21"
         transform="matrix(1.0001358,0,0,0.86609008,1.0063142,1.6115889)" /><path
         fill="#253951"
         d="m 7.5,8 h 7 C 14.777,8 15,8.223 15,8.5 V 9 H 7 V 8.5 C 7,8.223 7.223,8 7.5,8 Z"
         id="path22"
         transform="matrix(1.0001358,0,0,0.86609008,1.0063142,1.6115889)" /><g
         opacity="0.2"
         transform="matrix(1.0001358,0,0,0.86609008,-0.9939574,-0.5536363)"
         id="g25"><rect
           width="2"
           height="2"
           x="4"
           y="6"
           rx="0.25"
           ry="0.25"
           id="rect22" /><rect
           width="2"
           height="2"
           x="4"
           y="9"
           rx="0.25"
           ry="0.25"
           id="rect23" /><rect
           width="2"
           height="2"
           x="4"
           y="12"
           rx="0.25"
           ry="0.25"
           id="rect24" /><rect
           width="2"
           height="2"
           x="4"
           y="15"
           rx="0.25"
           ry="0.25"
           id="rect25" /></g><rect
         fill="#ffffff"
         width="2"
         height="2"
         x="2"
         y="3"
         rx="0.25"
         ry="0.25"
         id="rect26"
         transform="matrix(1.0001358,0,0,0.86609008,1.0063142,1.6115889)" /><rect
         fill="#ffffff"
         width="2"
         height="2"
         x="2"
         y="6"
         rx="0.25"
         ry="0.25"
         id="rect27"
         transform="matrix(1.0001358,0,0,0.86609008,1.0063142,1.6115889)" /><rect
         fill="#ffffff"
         width="2"
         height="2"
         x="2"
         y="9"
         rx="0.25"
         ry="0.25"
         id="rect28"
         transform="matrix(1.0001358,0,0,0.86609008,1.0063142,1.6115889)" /><rect
         fill="#ffffff"
         width="2"
         height="2"
         x="2"
         y="12"
         rx="0.25"
         ry="0.25"
         id="rect29"
         transform="matrix(1.0001358,0,0,0.86609008,1.0063142,1.6115889)" /><g
         transform="matrix(1.0001358,0,0,0.86609008,1.0063142,1.6115889)"
         id="g29" /></g></g><g
     id="g3"
     transform="matrix(0.61882525,0,0,0.61882525,9.6895726,9.7614946)"><circle
       style="fill:#f44336"
       cx="12"
       cy="12"
       r="10"
       id="circle1" /><path
       style="fill:#ffffff"
       d="m 8,6 4,4 4,-4 2,2 -4,4 4,4 -2,2 -4,-4 -4,4 -2,-2 4,-4 -4,-4 z"
       id="path1-5" /></g></svg>
