<?xml version="1.0" encoding="UTF-8" standalone="no"?>
<svg
   width="22"
   height="22"
   version="1"
   id="svg4"
   sodipodi:docname="info.svg"
   inkscape:version="1.4 (e7c3feb100, 2024-10-09)"
   xmlns:inkscape="http://www.inkscape.org/namespaces/inkscape"
   xmlns:sodipodi="http://sodipodi.sourceforge.net/DTD/sodipodi-0.dtd"
   xmlns="http://www.w3.org/2000/svg"
   xmlns:svg="http://www.w3.org/2000/svg">
  <defs
     id="defs4" />
  <sodipodi:namedview
     id="namedview4"
     pagecolor="#ffffff"
     bordercolor="#000000"
     borderopacity="0.25"
     inkscape:showpageshadow="2"
     inkscape:pageopacity="0.0"
     inkscape:pagecheckerboard="0"
     inkscape:deskcolor="#d1d1d1"
     inkscape:zoom="38.890873"
     inkscape:cx="10.619458"
     inkscape:cy="10.50375"
     inkscape:window-width="1595"
     inkscape:window-height="1080"
     inkscape:window-x="0"
     inkscape:window-y="0"
     inkscape:window-maximized="0"
     inkscape:current-layer="svg4" />
  <rect
     fill="#30a3db"
     width="20"
     height="20"
     x="-21"
     y="-21"
     rx="10"
     ry="10"
     transform="matrix(0,-1,-1,0,0,0)"
     id="rect1" />
  <g
     opacity=".2"
     transform="matrix(1,0,0,-1,-535,-336.5)"
     id="g1">
    <path
       class="error"
       d="m545-355h2v9.0039h-2zm0 11.004h2v1.9961h-2z"
       id="path1" />
  </g>
  <g
     transform="matrix(1,0,0,-1,-535,-337)"
     id="g2">
    <path
       fill="#fff"
       class="error"
       d="m545-355h2v9.0039h-2zm0 11.004h2v1.9961h-2z"
       id="path2" />
  </g>
  <path
     fill="#fff"
     opacity=".2"
     d="m11 1c-5.54 0-10 4.46-10 10 0 0.084 0.004 0.166 0.0058 0.25 0.1324-5.423 4.5382-9.75 9.9942-9.75 5.4558 0 9.862 4.327 9.994 9.75 0.002-0.08343 0.0059-0.16606 0.0059-0.25 0-5.54-4.46-10-10-10z"
     id="path3" />
  <path
     opacity=".3"
     d="m1.0058 11.25c-0.002 0.084-0.0058 0.166-0.0058 0.25 0 5.54 4.46 10 10 10s10-4.46 10-10c0-0.084-0.004-0.1665-0.006-0.25-0.132 5.423-4.538 9.75-9.994 9.75s-9.862-4.327-9.994-9.75z"
     id="path4" />
</svg>
