<?xml version="1.0" encoding="UTF-8" standalone="no"?>
<svg
   width="16"
   height="16"
   version="1.1"
   id="svg2"
   sodipodi:docname="lock-screen.svg"
   xml:space="preserve"
   inkscape:version="1.4 (e7c3feb100, 2024-10-09)"
   xmlns:inkscape="http://www.inkscape.org/namespaces/inkscape"
   xmlns:sodipodi="http://sodipodi.sourceforge.net/DTD/sodipodi-0.dtd"
   xmlns="http://www.w3.org/2000/svg"
   xmlns:svg="http://www.w3.org/2000/svg"><defs
     id="defs2" /><sodipodi:namedview
     id="namedview2"
     pagecolor="#ffffff"
     bordercolor="#000000"
     borderopacity="0.25"
     inkscape:showpageshadow="2"
     inkscape:pageopacity="0.0"
     inkscape:pagecheckerboard="0"
     inkscape:deskcolor="#d1d1d1"
     inkscape:zoom="53.47495"
     inkscape:cx="8.5367073"
     inkscape:cy="7.7980437"
     inkscape:window-width="1595"
     inkscape:window-height="1377"
     inkscape:window-x="0"
     inkscape:window-y="0"
     inkscape:window-maximized="0"
     inkscape:current-layer="layer2" /><g
     inkscape:groupmode="layer"
     id="layer1"
     inkscape:label="Layer 1"><g
       id="g2"><rect
         style="fill:#8e8e8e"
         width="10"
         height="12.8"
         x="3"
         y="3.2"
         rx=".833"
         ry=".8"
         id="rect1" /><path
         style="fill:#595959"
         d="m 0,12 v 1.2 C 0,13.6432 0.3568,14 0.8,14 H 15.2 C 15.6432,14 16,13.6432 16,13.2 V 12 Z"
         id="path1" /><path
         style="fill:#333333"
         d="M 0.8,0.99999976 C 0.3568,0.99999976 0,1.3567998 0,1.7999998 V 12 H 16 V 1.7999998 c 0,-0.4432 -0.3568,-0.80000004 -0.8,-0.80000004 z"
         id="path2" /></g></g><g
     inkscape:groupmode="layer"
     id="layer2"
     inkscape:label="Layer 2"><g
       id="g3"
       transform="matrix(0.58859242,0,0,0.58859242,3.4123444,1.7302503)"><circle
         style="fill:#455a64"
         cx="8"
         cy="8"
         r="7"
         id="circle1" /><path
         style="fill:#ffffff"
         d="m 7.9999978,3 c -1.6,0 -3,1 -3,2.9166643 V 7 H 4.6666645 C 4.2973312,7 3.9999978,7.3662857 3.9999978,7.762 v 3.523715 C 3.9999978,11.681429 4.2973312,12 4.6666645,12 h 6.6666665 c 0.369334,0 0.666667,-0.318571 0.666667,-0.714285 V 7.762 C 11.999998,7.3662857 11.656551,7 11.333331,7 H 10.999998 V 5.9166643 C 10.999998,4 9.5999979,3 7.9999978,3 Z m 0,1 C 8.7999979,4 9.9999979,4.5504643 9.9999979,5.9166643 V 7 H 5.9999978 V 5.9166643 c 0,-1.3526786 1.2,-1.9166643 2,-1.9166643 z"
         id="path1-3" /></g></g></svg>
