<?xml version="1.0" encoding="UTF-8" standalone="no"?>
<!-- Created with Inkscape (http://www.inkscape.org/) -->

<svg
   version="1.0"
   width="24"
   height="24"
   id="svg3299"
   sodipodi:docname="logout.svg"
   xml:space="preserve"
   inkscape:version="1.4 (e7c3feb100, 2024-10-09)"
   xmlns:inkscape="http://www.inkscape.org/namespaces/inkscape"
   xmlns:sodipodi="http://sodipodi.sourceforge.net/DTD/sodipodi-0.dtd"
   xmlns:xlink="http://www.w3.org/1999/xlink"
   xmlns="http://www.w3.org/2000/svg"
   xmlns:svg="http://www.w3.org/2000/svg"><sodipodi:namedview
     id="namedview1"
     pagecolor="#ffffff"
     bordercolor="#000000"
     borderopacity="0.25"
     inkscape:showpageshadow="2"
     inkscape:pageopacity="0.0"
     inkscape:pagecheckerboard="0"
     inkscape:deskcolor="#d1d1d1"
     inkscape:zoom="25.208333"
     inkscape:cx="10.829752"
     inkscape:cy="12.733884"
     inkscape:window-width="1272"
     inkscape:window-height="1377"
     inkscape:window-x="0"
     inkscape:window-y="0"
     inkscape:window-maximized="0"
     inkscape:current-layer="svg3299" /><defs
     id="defs3301"><linearGradient
       x1="30.00001"
       y1="6.333993"
       x2="30.00001"
       y2="24.913183"
       id="linearGradient2912"
       xlink:href="#linearGradient3341"
       gradientUnits="userSpaceOnUse"
       gradientTransform="matrix(0.5277033,0,0,0.5357324,-1.3310981,-1.4043014)" /><linearGradient
       x1="22"
       y1="39"
       x2="17"
       y2="37.4375"
       id="linearGradient2910"
       xlink:href="#linearGradient5060"
       gradientUnits="userSpaceOnUse"
       gradientTransform="matrix(-0.75,0,0,0.4347826,34.15,2.9173914)" /><radialGradient
       cx="30"
       cy="33.1875"
       r="4.6875"
       fx="30"
       fy="33.1875"
       id="radialGradient2908"
       xlink:href="#linearGradient5060"
       gradientUnits="userSpaceOnUse"
       gradientTransform="matrix(0.8149192,-3.8844793e-7,1.136461e-7,0.2534027,-9.9475804,6.5902095)" /><linearGradient
       x1="22"
       y1="39"
       x2="17"
       y2="37.4375"
       id="linearGradient2906"
       xlink:href="#linearGradient5060"
       gradientUnits="userSpaceOnUse"
       gradientTransform="matrix(0.75,0,0,0.4347826,-5.1276295,2.9173914)" /><linearGradient
       x1="30"
       y1="5"
       x2="30"
       y2="44.678879"
       id="linearGradient2904"
       xlink:href="#linearGradient3785"
       gradientUnits="userSpaceOnUse"
       gradientTransform="matrix(0.5277033,0,0,0.5357324,-1.3310981,-1.4043014)" /><radialGradient
       cx="26.375898"
       cy="12.31301"
       r="8"
       fx="26.375898"
       fy="12.31301"
       id="radialGradient2902"
       xlink:href="#linearGradient6954"
       gradientUnits="userSpaceOnUse"
       gradientTransform="matrix(0.8655204,-7.102871e-2,6.760608e-2,0.849074,-11.038912,-4.204803)" /><linearGradient
       x1="29.996229"
       y1="21.440447"
       x2="29.996229"
       y2="43.531425"
       id="linearGradient2900"
       xlink:href="#linearGradient3341"
       gradientUnits="userSpaceOnUse"
       gradientTransform="matrix(0.5161324,0,0,0.5166711,-0.9839725,-0.491809)" /><linearGradient
       id="linearGradient3785"><stop
         id="stop3787"
         style="stop-color:#b8b8b8;stop-opacity:1"
         offset="0" /><stop
         id="stop3789"
         style="stop-color:#878787;stop-opacity:1"
         offset="1" /></linearGradient><linearGradient
       x1="30"
       y1="25.084745"
       x2="30"
       y2="45"
       id="linearGradient2894"
       xlink:href="#linearGradient3785"
       gradientUnits="userSpaceOnUse"
       gradientTransform="matrix(0.5161324,0,0,0.5166711,-0.9839725,-0.491809)" /><linearGradient
       id="linearGradient6954"><stop
         id="stop6960"
         style="stop-color:#f5f5f5;stop-opacity:1"
         offset="0" /><stop
         id="stop6962"
         style="stop-color:#d2d2d2;stop-opacity:1"
         offset="1" /></linearGradient><radialGradient
       cx="24.999998"
       cy="28.659998"
       r="16"
       fx="24.999998"
       fy="28.659998"
       id="radialGradient2890"
       xlink:href="#linearGradient6954"
       gradientUnits="userSpaceOnUse"
       gradientTransform="matrix(0.6774237,0,0,0.1928563,-5.0162555,9.9977318)" /><linearGradient
       id="linearGradient5060"><stop
         id="stop5062"
         style="stop-color:#000000;stop-opacity:1"
         offset="0" /><stop
         id="stop5064"
         style="stop-color:#000000;stop-opacity:0"
         offset="1" /></linearGradient><radialGradient
       cx="32"
       cy="41.5"
       r="21"
       fx="32"
       fy="41.5"
       id="radialGradient2887"
       xlink:href="#linearGradient5060"
       gradientUnits="userSpaceOnUse"
       gradientTransform="matrix(0.452381,0,0,0.1428571,2.380949e-2,15.071429)" /><linearGradient
       id="linearGradient4176"><stop
         id="stop4178"
         style="stop-color:#cc7032;stop-opacity:1"
         offset="0" /><stop
         id="stop3223"
         style="stop-color:#bb2d13;stop-opacity:1"
         offset="0.73855066" /><stop
         id="stop4180"
         style="stop-color:#a87300;stop-opacity:0"
         offset="1" /></linearGradient><linearGradient
       x1="52.712177"
       y1="45.089542"
       x2="47.960129"
       y2="25.534338"
       id="linearGradient3098"
       xlink:href="#linearGradient4176"
       gradientUnits="userSpaceOnUse"
       gradientTransform="matrix(0,-0.5241142,-0.5575148,0,32.735771,69.1272)" /><linearGradient
       id="linearGradient4168"><stop
         id="stop4170"
         style="stop-color:#ecb56c;stop-opacity:1"
         offset="0" /><stop
         id="stop4172"
         style="stop-color:#e86225;stop-opacity:1"
         offset="0.7426424" /><stop
         id="stop4174"
         style="stop-color:#b07c0b;stop-opacity:0"
         offset="1" /></linearGradient><linearGradient
       x1="5.6373582"
       y1="25.809036"
       x2="64.197998"
       y2="25.809036"
       id="linearGradient3096"
       xlink:href="#linearGradient4168"
       gradientUnits="userSpaceOnUse"
       gradientTransform="matrix(0.2807027,0,0,0.2638858,0.4859986,41.434644)" /><linearGradient
       id="linearGradient3341"><stop
         id="stop3343"
         style="stop-color:#ffffff;stop-opacity:1"
         offset="0" /><stop
         id="stop3345"
         style="stop-color:#ffffff;stop-opacity:0"
         offset="1" /></linearGradient><linearGradient
       x1="27.399923"
       y1="10.177515"
       x2="10.87553"
       y2="34.629131"
       id="linearGradient3100"
       xlink:href="#linearGradient3341"
       gradientUnits="userSpaceOnUse"
       gradientTransform="matrix(-0.2840733,0,0,0.2513962,14.357652,41.001558)" /></defs><g
     id="g1"
     transform="matrix(1.164483,0,0,1.164483,-1.9719411,-2.254999)"><circle
       style="opacity:0.2"
       cx="12"
       cy="12.5"
       r="10"
       id="circle1" /><circle
       style="fill:#4caf50"
       cx="12"
       cy="12"
       r="10"
       id="circle2" /><path
       style="opacity:0.2;fill:#ffffff"
       d="m 12,2 a 10,10 0 0 0 -10,10 10,10 0 0 0 0.01075,0.291 10,10 0 0 1 9.989,-9.791 10,10 0 0 1 9.9895,9.709 10,10 0 0 0 0.0105,-0.209 10,10 0 0 0 -10,-10 z"
       id="path2" /><path
       style="opacity:0.2"
       d="m 11.81836,5.5027007 c -0.209035,0.00578 -0.417466,0.020695 -0.625,0.044925 -1.660273,0.193856 -3.2511375,0.974929 -4.431641,2.304737 -2.3610074,2.6596163 -2.3473051,6.6871943 0.032225,9.3302783 2.3795365,2.643085 6.387181,3.083813 9.284179,1.019553 1.089858,-0.774228 -0.07499,-2.406614 -1.163085,-1.629917 C 12.834271,18.054929 9.9923015,17.744091 8.2832015,15.845699 6.574102,13.947305 6.5639725,11.090784 8.2597665,9.1805162 9.955557,7.2702507 12.795643,6.9379812 14.88672,8.4060852 15.98474,9.2071856 17.165022,7.5307491 16.039063,6.7693312 14.765345,5.8750772 13.281598,5.4622634 11.81836,5.5027007 Z M 16,8.9998462 v 2.5000548 h -3 c -0.552285,0 -1,0.447725 -1,1.000021 0,0.552296 0.447715,1.000021 1,1.000021 h 3 v 2.500054 l 4.5,-3.500075 z"
       id="path3" /><path
       style="fill:#ffffff"
       d="m 11.81836,5.0026295 c -0.209035,0.00578 -0.417466,0.020695 -0.625,0.044925 -1.660273,0.193856 -3.2511375,0.974929 -4.431641,2.304737 -2.3610074,2.6596155 -2.3473051,6.6871935 0.032225,9.3302775 2.3795365,2.643085 6.387181,3.083813 9.284179,1.019553 1.089858,-0.774228 -0.07499,-2.406614 -1.163085,-1.629917 C 12.834271,17.554857 9.9923015,17.244019 8.2832015,15.345627 6.574102,13.447233 6.5639725,10.590712 8.2597665,8.680445 9.955557,6.7701795 12.795643,6.43791 14.88672,7.906014 15.98474,8.7071144 17.165022,7.0306779 16.039063,6.26926 14.765345,5.375006 13.281598,4.9621922 11.81836,5.0026295 Z M 16,8.499775 v 2.500054 h -3 c -0.552285,0 -1,0.447725 -1,1.000021 0,0.552296 0.447715,1.000021 1,1.000021 h 3 v 2.500054 l 4.5,-3.500075 z"
       id="path4" /></g></svg>
