<?xml version="1.0" encoding="UTF-8" standalone="no"?>
<svg
   width="16"
   height="16"
   version="1"
   id="svg1"
   sodipodi:docname="logout.svg"
   inkscape:version="1.4 (e7c3feb100, 2024-10-09)"
   xmlns:inkscape="http://www.inkscape.org/namespaces/inkscape"
   xmlns:sodipodi="http://sodipodi.sourceforge.net/DTD/sodipodi-0.dtd"
   xmlns="http://www.w3.org/2000/svg"
   xmlns:svg="http://www.w3.org/2000/svg">
  <defs
     id="defs1" />
  <sodipodi:namedview
     id="namedview1"
     pagecolor="#ffffff"
     bordercolor="#000000"
     borderopacity="0.25"
     inkscape:showpageshadow="2"
     inkscape:pageopacity="0.0"
     inkscape:pagecheckerboard="0"
     inkscape:deskcolor="#d1d1d1"
     inkscape:zoom="53.47495"
     inkscape:cx="6.4609691"
     inkscape:cy="8.7704616"
     inkscape:window-width="1595"
     inkscape:window-height="1377"
     inkscape:window-x="0"
     inkscape:window-y="0"
     inkscape:window-maximized="0"
     inkscape:current-layer="svg1" />
  <circle
     style="fill:#4caf50"
     cx="8"
     cy="8"
     r="8"
     id="circle1" />
  <path
     style="fill:#ffffff"
     d="M 7.96875 3 C 7.6832038 2.9998649 7.3979173 3.023543 7.1171875 3.0722656 C 5.9942681 3.2671562 4.9364912 3.8486328 4.1601562 4.7792969 C 2.6074863 6.640625 2.6127707 9.3785225 4.171875 11.234375 C 5.7309792 13.090226 8.4081085 13.542763 10.484375 12.304688 A 0.99249039 1.0007134 0 1 0 9.4746094 10.583984 C 8.2195859 11.332353 6.6279655 11.063197 5.6855469 9.9414062 C 4.7431283 8.8196148 4.7431113 7.1915076 5.6816406 6.0664062 C 6.62017 4.9413047 8.2072372 4.6662097 9.4648438 5.4101562 A 0.99249039 1.0007134 0 1 0 10.46875 3.6855469 C 9.6885475 3.2240123 8.8253886 3.0004054 7.96875 3 z M 11 5.5 L 11 7 L 9.0078125 7 A 0.99443471 1.0001 0 1 0 9.0078125 9 L 11 9 L 11 10.5 L 14.400391 8 L 11 5.5 z"
     id="path1" />
</svg>
