<?xml version="1.0" encoding="UTF-8" standalone="no"?>
<!-- Created with Inkscape (http://www.inkscape.org/) -->

<svg
   version="1.1"
   width="24"
   height="24"
   id="svg2816"
   style="display:inline"
   inkscape:version="1.4 (e7c3feb100, 2024-10-09)"
   sodipodi:docname="message.svg"
   xml:space="preserve"
   xmlns:inkscape="http://www.inkscape.org/namespaces/inkscape"
   xmlns:sodipodi="http://sodipodi.sourceforge.net/DTD/sodipodi-0.dtd"
   xmlns:xlink="http://www.w3.org/1999/xlink"
   xmlns="http://www.w3.org/2000/svg"
   xmlns:svg="http://www.w3.org/2000/svg"
   xmlns:rdf="http://www.w3.org/1999/02/22-rdf-syntax-ns#"
   xmlns:cc="http://creativecommons.org/ns#"
   xmlns:dc="http://purl.org/dc/elements/1.1/"><metadata
     id="metadata28"><rdf:RDF><cc:Work
         rdf:about=""><dc:format>image/svg+xml</dc:format><dc:type
           rdf:resource="http://purl.org/dc/dcmitype/StillImage" /></cc:Work></rdf:RDF></metadata><sodipodi:namedview
     pagecolor="#ffffff"
     bordercolor="#666666"
     borderopacity="1"
     objecttolerance="10"
     gridtolerance="10"
     guidetolerance="10"
     inkscape:pageopacity="0"
     inkscape:pageshadow="2"
     inkscape:window-width="1615"
     inkscape:window-height="1080"
     id="namedview26"
     showgrid="false"
     inkscape:zoom="26.2"
     inkscape:cx="10.591603"
     inkscape:cy="13.301527"
     inkscape:window-x="0"
     inkscape:window-y="0"
     inkscape:window-maximized="0"
     inkscape:current-layer="svg2816"
     inkscape:showpageshadow="2"
     inkscape:pagecheckerboard="0"
     inkscape:deskcolor="#d1d1d1" /><defs
     id="defs2818"><inkscape:perspective
       sodipodi:type="inkscape:persp3d"
       inkscape:vp_x="0 : 12 : 1"
       inkscape:vp_y="0 : 1000 : 0"
       inkscape:vp_z="24 : 12 : 1"
       inkscape:persp3d-origin="12 : 8 : 1"
       id="perspective30" /><linearGradient
       id="linearGradient3681"><stop
         id="stop3683"
         style="stop-color:#ffffff;stop-opacity:1"
         offset="0" /><stop
         id="stop3685"
         style="stop-color:#ffffff;stop-opacity:0"
         offset="1" /></linearGradient><radialGradient
       cx="7.1587596"
       cy="6.2412133"
       r="9.5"
       fx="7.1587596"
       fy="6.2412133"
       id="radialGradient3671"
       xlink:href="#linearGradient3698"
       gradientUnits="userSpaceOnUse"
       gradientTransform="matrix(2.2759163,7.8857866e-8,-5.8983671e-8,1.7023273,-10.016422,-5.5324834)" /><linearGradient
       x1="9.051095"
       y1="5.8686132"
       x2="11.284672"
       y2="22.992701"
       id="linearGradient3687"
       xlink:href="#linearGradient3681"
       gradientUnits="userSpaceOnUse"
       gradientTransform="matrix(1.2631579,0,0,1.2631579,-2.5657894,-3.75)" /><linearGradient
       id="linearGradient3698"><stop
         id="stop3700"
         style="stop-color:#eeeeec;stop-opacity:1"
         offset="0" /><stop
         id="stop3702"
         style="stop-color:#babdb6;stop-opacity:1"
         offset="0.79219842" /><stop
         id="stop3704"
         style="stop-color:#a1a59b;stop-opacity:1"
         offset="1" /></linearGradient><linearGradient
       x1="24.103895"
       y1="15.168831"
       x2="24.103895"
       y2="32.485161"
       id="linearGradient9127"
       xlink:href="#linearGradient2264"
       gradientUnits="userSpaceOnUse"
       gradientTransform="matrix(0.4691323,0,0,0.4663025,18.849015,37.308462)" /><linearGradient
       id="linearGradient2264"><stop
         id="stop2266"
         style="stop-color:#d7e866;stop-opacity:1"
         offset="0" /><stop
         id="stop2268"
         style="stop-color:#8cab2a;stop-opacity:1"
         offset="1" /></linearGradient><linearGradient
       id="linearGradient3943"><stop
         id="stop3945"
         style="stop-color:#ffffff;stop-opacity:0.40000001"
         offset="0" /><stop
         id="stop3947"
         style="stop-color:#ffffff;stop-opacity:0"
         offset="1" /></linearGradient><linearGradient
       x1="24.138529"
       y1="7.0478544"
       x2="24.138529"
       y2="47.272728"
       id="linearGradient2875"
       xlink:href="#linearGradient3943"
       gradientUnits="userSpaceOnUse"
       gradientTransform="matrix(0.2817955,0,0,0.2800956,23.345098,41.514885)" /></defs><g
     transform="matrix(1.1675637,0,0,1.1675637,-0.89272617,-1.1427228)"
     id="g5"><path
       fill="#248afd"
       d="m 11,0.99998 c -0.24079,0 -0.47841,0.011747 -0.71484,0.02832 -0.02967,0.00219 -0.05921,0.00437 -0.08887,0.00684 -3.5723,0.28191 -6.5975,2.4266 -8.126,5.4668 -3.38e-4,6.5e-4 -6.4e-4,0.0013 -9.75e-4,0.00195 -0.0989,0.1967 -0.2001,0.3925 -0.2861,0.5966 -0.4682,1.0571 -0.7224,2.179 -0.7686,3.3534 -0.00203,0.03794 -0.0023,0.0762 -0.00391,0.11426 -0.00309,0.1122 -0.00954,0.22376 -0.00879,0.33691 -2.902e-4,0.03173 -0.00195,0.06293 -0.00195,0.09473 0,1.1628 0.20666,2.2732 0.56836,3.3096 0.14557,0.4646 0.31327,0.93379 0.51562,1.4092 0.50403,1.1841 0.56662,1.507 0.4873,2.4961 -0.055261,0.68918 -0.24206,1.3929 -0.47559,1.7891 -0.21173,0.35922 -0.38477,0.72986 -0.38477,0.82422 0,0.29178 1.6886,0.18963 3.1807,-0.19238 1.7479,-0.44752 1.9007,-0.44683 3.334,0.003 0.65566,0.20575 1.4039,0.31706 2.248,0.34766 0.03532,0.0018 0.07103,0.0015 0.10644,0.0029 0.11553,0.0032 0.22636,0.01074 0.3457,0.01074 0.0097,0 0.01863,-9.5e-4 0.02832,-10e-4 0.01539,6.9e-5 0.03049,10e-4 0.0459,10e-4 0.27924,0 0.5548,-0.01391 0.82812,-0.03614 2.4722,-0.17582 4.4579,-1.0908 6.2451,-2.875 1.4724,-1.47 2.3845,-3.2847 2.7451,-5.1836 0.03323,-0.17354 0.06077,-0.34873 0.08496,-0.52539 0.01463,-0.10845 0.02999,-0.21639 0.04102,-0.3252 0.02425,-0.23334 0.03882,-0.47008 0.04687,-0.70801 0.0018,-0.05996 0.0042,-0.1197 0.0049,-0.17969 8.94e-4,-0.05587 0.0039,-0.11096 0.0039,-0.16702 0,-5.4475 -4.3134,-9.8477 -9.7246,-9.9932 -0.04203,-0.00122 -0.08394,-0.00226 -0.12598,-0.00293 -0.04999,-7.288e-4 -0.09924,-0.003906 -0.14941,-0.003906 z"
       id="path1"
       inkscape:label="path1" /><path
       opacity="0.2"
       d="m 1.0078,11.179 c -0.00279,0.07533 -0.00637,0.15047 -0.00586,0.22656 -2.927e-4,0.03173 -0.001953,0.06292 -0.001953,0.09473 0,1.1628 0.20666,2.2732 0.56836,3.3096 0.14557,0.4646 0.31327,0.93379 0.51562,1.4092 0.32568,0.76512 0.46603,1.1719 0.50391,1.6299 0.02797,-0.71125 -0.07191,-1.115 -0.50391,-2.1299 -0.2024,-0.476 -0.3701,-0.945 -0.5157,-1.409 -0.3429,-0.983 -0.5403,-2.034 -0.5605,-3.131 z m 19.986,0.07324 c -9.5e-4,0.03156 -0.002,0.06311 -0.0029,0.09473 -0.0081,0.23793 -0.02263,0.47467 -0.04687,0.70801 -0.01103,0.1088 -0.02639,0.21675 -0.04102,0.3252 -0.02419,0.17666 -0.05174,0.35185 -0.08496,0.52539 -0.36058,1.8989 -1.2727,3.7136 -2.7451,5.1836 -1.7872,1.7842 -3.7729,2.6992 -6.2451,2.875 -0.273,0.022 -0.549,0.036 -0.828,0.036 -0.01541,0 -0.0305,-9e-4 -0.0459,-0.001 -0.0097,5e-5 -0.01862,0.001 -0.02832,0.001 -0.11934,0 -0.23017,-0.0076 -0.3457,-0.01074 -0.03541,-0.0014 -0.07113,-0.0011 -0.10644,-0.0029 -0.84419,-0.0306 -1.5924,-0.14191 -2.248,-0.34766 -1.4333,-0.44978 -1.586,-0.45045 -3.334,-0.003 -1.2368,0.31666 -2.5942,0.43661 -3.0273,0.30371 -0.088689,0.18193 -0.15332,0.33448 -0.15332,0.38867 0,0.29178 1.6886,0.18963 3.1807,-0.19238 1.7479,-0.44752 1.9007,-0.44683 3.334,0.003 0.65566,0.20575 1.4039,0.31706 2.248,0.34766 0.03531,0.0018 0.07103,0.0015 0.10644,0.0029 0.11553,0.0032 0.22636,0.01074 0.3457,0.01074 0.0097,0 0.01863,-9.5e-4 0.02832,-0.001 0.01539,6.9e-5 0.03049,0.001 0.0459,0.001 0.27924,0 0.5548,-0.0139 0.82812,-0.03613 2.4722,-0.17582 4.4579,-1.0908 6.2451,-2.875 1.4724,-1.47 2.3845,-3.2847 2.7451,-5.1836 0.03323,-0.17354 0.06077,-0.34873 0.08496,-0.52539 0.01462,-0.10845 0.02998,-0.21639 0.04101,-0.3252 0.02425,-0.23334 0.03882,-0.47008 0.04687,-0.70801 0.0018,-0.05996 0.0042,-0.1197 0.0049,-0.17969 8.94e-4,-0.05584 0.0039,-0.11092 0.0039,-0.16699 0,-0.08315 -0.0038,-0.1654 -0.0059,-0.24805 z"
       id="path4" /><path
       fill="#ffffff"
       opacity="0.2"
       d="m 11,0.99998 c -0.24079,0 -0.47841,0.011747 -0.71484,0.02832 -0.02967,0.00219 -0.05921,0.00437 -0.08887,0.00684 -3.5723,0.28191 -6.5975,2.4266 -8.126,5.4668 -3.38e-4,6.5e-4 -6.4e-4,0.0013 -9.75e-4,0.00195 -0.0989,0.1967 -0.2001,0.3925 -0.2861,0.5966 -0.4682,1.0571 -0.7224,2.179 -0.7686,3.3534 -0.00203,0.03794 -0.0023,0.0762 -0.00391,0.11426 -0.00309,0.1122 -0.00954,0.22376 -0.00879,0.33691 -2.902e-4,0.03173 -0.00195,0.06293 -0.00195,0.09473 0,0.06025 0.00671,0.11875 0.00781,0.17871 0.00136,-0.03669 0.00192,-0.0736 0.00293,-0.11035 0.00161,-0.03806 0.00188,-0.07631 0.00391,-0.11426 0.0462,-1.1744 0.3004,-2.2963 0.7686,-3.3534 0.086,-0.2041 0.1872,-0.3999 0.2861,-0.5967 3.35e-4,-6.5e-4 6.4e-4,-0.0013 9.75e-4,-0.00195 1.5284,-3.0402 4.5537,-5.1849 8.126,-5.4668 C 10.22594,1.53258 10.25549,1.53039 10.28516,1.5282 10.52159,1.511627 10.75921,1.499881 11,1.499881 c 0.05017,0 0.09943,0.00318 0.14941,0.00391 0.04204,6.65e-4 0.08395,0.00171 0.12598,0.00293 5.3286,0.14325 9.5898,4.413 9.7187,9.7451 8.5e-4,-0.0283 0.0017,-0.0566 0.0019,-0.08496 9.64e-4,-0.05585 0.004,-0.11093 0.004,-0.167 0,-5.4475 -4.3134,-9.8477 -9.7246,-9.9932 -0.04203,-0.00122 -0.08394,-0.00226 -0.12598,-0.00293 -0.05003,-7.29e-4 -0.09929,-0.003906 -0.14945,-0.003906 z m -8.4121,16.849 c -0.00467,0.1186 -0.00527,0.22485 -0.016602,0.36621 -0.055261,0.68918 -0.24206,1.3929 -0.47559,1.7891 -0.21173,0.35922 -0.38477,0.72986 -0.38477,0.82422 0,0.04992 0.063914,0.0839 0.15332,0.11133 0.065747,-0.13487 0.14131,-0.28262 0.23145,-0.43555 0.23352,-0.39621 0.42032,-1.0999 0.47559,-1.7891 C 2.599363,18.3652 2.608642,18.09981 2.5879,17.84898 Z"
       id="path5" /><text
       xml:space="preserve"
       style="display:inline;font-size:7.35547px;text-align:start;writing-mode:lr-tb;direction:ltr;text-anchor:start;fill:#000000;fill-opacity:0.2;fill-rule:evenodd;stroke-width:0.638547;stroke-linecap:round;paint-order:fill markers stroke;opacity:0.35463885"
       x="2.2491281"
       y="14.132248"
       id="text2"
       transform="matrix(0.85648432,0,0,0.85648432,0.76460597,0.97872416)"><tspan
         sodipodi:role="line"
         id="tspan2"
         x="2.2491281"
         y="14.132248"
         style="fill:#000000;fill-opacity:1;stroke-width:0.638547">@1#*</tspan></text></g><text
     xml:space="preserve"
     style="font-size:7.35547px;text-align:start;writing-mode:lr-tb;direction:ltr;text-anchor:start;fill:#000000;fill-opacity:0.2;fill-rule:evenodd;stroke-width:0.638547;stroke-linecap:round;paint-order:fill markers stroke"
     x="2.2491281"
     y="13.788736"
     id="text1"><tspan
       sodipodi:role="line"
       id="tspan1"
       x="2.2491281"
       y="13.788736"
       style="fill:#000000;fill-opacity:1;stroke-width:0.638547">@1#*</tspan></text></svg>
