<?xml version="1.0" encoding="UTF-8" standalone="no"?>
<svg
   width="16"
   height="16"
   version="1.1"
   id="svg2"
   sodipodi:docname="observe.svg"
   xml:space="preserve"
   inkscape:version="1.4 (e7c3feb100, 2024-10-09)"
   xmlns:inkscape="http://www.inkscape.org/namespaces/inkscape"
   xmlns:sodipodi="http://sodipodi.sourceforge.net/DTD/sodipodi-0.dtd"
   xmlns="http://www.w3.org/2000/svg"
   xmlns:svg="http://www.w3.org/2000/svg"><defs
     id="defs2" /><sodipodi:namedview
     id="namedview2"
     pagecolor="#ffffff"
     bordercolor="#000000"
     borderopacity="0.25"
     inkscape:showpageshadow="2"
     inkscape:pageopacity="0.0"
     inkscape:pagecheckerboard="0"
     inkscape:deskcolor="#d1d1d1"
     inkscape:zoom="37.8125"
     inkscape:cx="6.2677686"
     inkscape:cy="10.591736"
     inkscape:window-width="1595"
     inkscape:window-height="1080"
     inkscape:window-x="0"
     inkscape:window-y="0"
     inkscape:window-maximized="0"
     inkscape:current-layer="layer2" /><g
     inkscape:groupmode="layer"
     id="layer1"
     inkscape:label="Layer 1"><g
       id="g2"><rect
         style="fill:#8e8e8e"
         width="10"
         height="12.8"
         x="3"
         y="3.2"
         rx=".833"
         ry=".8"
         id="rect1" /><path
         style="fill:#595959"
         d="m 0,12 v 1.2 C 0,13.6432 0.3568,14 0.8,14 H 15.2 C 15.6432,14 16,13.6432 16,13.2 V 12 Z"
         id="path1" /><path
         style="fill:#333333"
         d="M 0.8,0.99999976 C 0.3568,0.99999976 0,1.3567998 0,1.7999998 V 12 H 16 V 1.7999998 c 0,-0.4432 -0.3568,-0.80000004 -0.8,-0.80000004 z"
         id="path2" /></g></g><g
     inkscape:groupmode="layer"
     id="layer2"
     inkscape:label="Layer 2"><g
       id="g3"
       transform="matrix(0.26710146,0,0,0.26710146,7.538354,7.2610489)"><path
         style="opacity:0.2"
         d="M 13.972495,3.0000008 C 7.4075386,3.000001 2.0000002,8.4146994 2,14.988347 c 2e-7,6.573649 5.4075386,11.988348 11.972495,11.988348 1.251393,2.58e-4 2.479251,-0.213896 3.657613,-0.593174 l 2.897639,2.899526 c 1.048168,1.093125 2.716126,1.787639 4.212978,1.711226 1.496851,-0.07642 2.72505,-0.7306 3.624485,-1.631226 0.899436,-0.900627 1.552759,-2.130451 1.629071,-3.629285 0.07631,-1.498834 -0.617285,-3.169 -1.708965,-4.218556 l 0.05845,0.05659 -2.971688,-2.977575 c 0.36721,-1.160361 0.571397,-2.36967 0.572906,-3.600015 v -0.0058 c 0,-6.5736475 -5.407538,-11.9883459 -11.972494,-11.9883461 z"
         id="path1-3" /><path
         style="fill:#30a3db;fill-opacity:1"
         d="M 13.972495,2.0000004 C 7.4075386,2.0000006 2.0000002,7.414699 2,13.988347 c 2e-7,6.573649 5.4075386,11.988348 11.972495,11.988348 1.251393,2.58e-4 2.479251,-0.213896 3.657613,-0.593174 l 2.897639,2.899526 c 1.048168,1.093125 2.716126,1.787639 4.212978,1.711226 1.496851,-0.07642 2.72505,-0.7306 3.624485,-1.631226 0.899436,-0.900627 1.552759,-2.130451 1.629071,-3.629285 0.07631,-1.498834 -0.617285,-3.169 -1.708965,-4.218556 l 0.05845,0.05659 -2.971688,-2.977575 c 0.36721,-1.160361 0.571397,-2.36967 0.572906,-3.600015 v -0.0058 c 0,-6.5736479 -5.407538,-11.9883463 -11.972494,-11.9883465 z"
         id="path2-6" /><path
         style="opacity:0.2"
         d="m 17.341916,20.425885 6.112946,6.112946 c 1.413764,1.472453 3.593547,-0.70733 2.121094,-2.121094 L 19.370131,18.211912 C 17,19 18,19 17.341916,20.425885 Z"
         id="path3" /><path
         style="fill:#565656"
         d="m 17.341916,19.425885 6.112946,6.112946 c 1.413764,1.472453 3.593547,-0.70733 2.121094,-2.121094 L 19.370131,17.211912 C 17,18 18,18 17.341916,19.425885 Z"
         id="path4" /><path
         style="opacity:0.2"
         d="M 14,7.0000004 A 8.0000002,8.0000002 0 0 0 6,15 8.0000002,8.0000002 0 0 0 14,23 8.0000002,8.0000002 0 0 0 22,15 8.0000002,8.0000002 0 0 0 14,7.0000004 Z M 14,10 a 4.9999996,4.9999996 0 0 1 5,5 4.9999996,4.9999996 0 0 1 -5,5 4.9999996,4.9999996 0 0 1 -5,-5 4.9999996,4.9999996 0 0 1 5,-5 z"
         id="path5" /><path
         style="fill:#ffffff"
         d="m 14,6 a 8.0000002,8.0000002 0 0 0 -8,8 8.0000002,8.0000002 0 0 0 8,8 8.0000002,8.0000002 0 0 0 8,-8 8.0000002,8.0000002 0 0 0 -8,-8 z m 0,3 a 4.9999996,4.9999996 0 0 1 5,5 4.9999996,4.9999996 0 0 1 -5,5 4.9999996,4.9999996 0 0 1 -5,-5 4.9999996,4.9999996 0 0 1 5,-5 z"
         id="path6" /><path
         style="opacity:0.1;fill:#ffffff"
         d="M 13.972656,2 C 7.4076998,2.0000002 2.0000002,7.4146332 2,13.988281 c 0,0.168551 0.018352,0.333045 0.025391,0.5 C 2.2928607,8.1438184 7.5760278,3.0000002 13.972656,3 c 6.413058,2e-7 11.706994,5.1701775 11.949219,11.537109 0.009,-0.180928 0.02321,-0.36103 0.02344,-0.542968 v -0.0059 C 25.945312,7.4146333 20.537612,2.0000002 13.972656,2 Z m 11.617188,15.8125 c -0.06506,0.262367 -0.135201,0.52341 -0.216797,0.78125 l 2.970703,2.978516 -0.05859,-0.05664 c 0.917279,0.881885 1.54704,2.201832 1.681641,3.490234 0.0091,-0.09061 0.02263,-0.178797 0.02734,-0.271484 0.07631,-1.498834 -0.617305,-3.169194 -1.708985,-4.21875 l 0.05859,0.05664 z"
         id="path7" /></g></g></svg>
