<?xml version="1.0" encoding="UTF-8" standalone="no"?>
<svg
   width="16"
   height="16"
   version="1.1"
   id="svg2"
   sodipodi:docname="offline.svg"
   xml:space="preserve"
   inkscape:version="1.4 (e7c3feb100, 2024-10-09)"
   xmlns:inkscape="http://www.inkscape.org/namespaces/inkscape"
   xmlns:sodipodi="http://sodipodi.sourceforge.net/DTD/sodipodi-0.dtd"
   xmlns="http://www.w3.org/2000/svg"
   xmlns:svg="http://www.w3.org/2000/svg"><defs
     id="defs2"><style
       id="current-color-scheme"
       type="text/css">.ColorScheme-Text { color:#dfdfdf; } .ColorScheme-Highlight { color:#4285f4; } .ColorScheme-NeutralText { color:#ff9800; } .ColorScheme-PositiveText { color:#4caf50; } .ColorScheme-NegativeText { color:#f44336; }</style></defs><sodipodi:namedview
     id="namedview2"
     pagecolor="#ffffff"
     bordercolor="#000000"
     borderopacity="0.25"
     inkscape:showpageshadow="2"
     inkscape:pageopacity="0.0"
     inkscape:pagecheckerboard="0"
     inkscape:deskcolor="#d1d1d1"
     inkscape:zoom="53.47495"
     inkscape:cx="7.2463835"
     inkscape:cy="8.302953"
     inkscape:window-width="1595"
     inkscape:window-height="1377"
     inkscape:window-x="0"
     inkscape:window-y="0"
     inkscape:window-maximized="0"
     inkscape:current-layer="layer2" /><g
     inkscape:groupmode="layer"
     id="layer1"
     inkscape:label="Layer 1"><g
       id="g2"><rect
         style="fill:#8e8e8e"
         width="10"
         height="12.8"
         x="3"
         y="3.2"
         rx=".833"
         ry=".8"
         id="rect1" /><path
         style="fill:#595959"
         d="m 0,12 v 1.2 C 0,13.6432 0.3568,14 0.8,14 H 15.2 C 15.6432,14 16,13.6432 16,13.2 V 12 Z"
         id="path1" /><path
         style="fill:#333333"
         d="M 0.8,0.99999976 C 0.3568,0.99999976 0,1.3567998 0,1.7999998 V 12 H 16 V 1.7999998 c 0,-0.4432 -0.3568,-0.80000004 -0.8,-0.80000004 z"
         id="path2" /></g></g><g
     inkscape:groupmode="layer"
     id="layer2"
     inkscape:label="Layer 2"><g
       id="g3"
       transform="matrix(0.46002755,0,0,0.46002755,4.2459151,3.1206196)"><path
         class="ColorScheme-Text"
         d="m 1,0.9999996 c 0,0 -1,0 -1,1.0000001 V 12 c 0,1 1,1 1,1 h 2 l 1,1 h 6 V 12 H 5 L 4,11 H 2 V 2.9999994 H 3 V 4.9999993 H 4 V 2.9999994 H 5 V 4.9999993 H 6 V 2.9999994 H 7 V 4.9999993 H 8.0000002 V 2.9999994 h 1 V 4.9999993 H 10 V 2.9999994 h 1 v 1.9999999 h 1 V 2.9999994 h 1 v 6 h 2 v -7 C 15,0.9999993 14,0.9999993 14,0.9999993 Z"
         style="opacity:0.35;fill:currentColor"
         id="path1-7" /><path
         class="ColorScheme-Text"
         d="m 11,10 v 1 c 0,0.27 0.1,0.53 0.28,0.72 l 0.78,0.78 -0.78,0.78 C 11.1,13.46 11,13.72 11,14 v 1 h 1 c 0.28,0 0.54,-0.1 0.72,-0.28 l 0.78,-0.79 0.78,0.79 C 14.46,14.9 14.72,15 15,15 h 1 v -1 c 0,-0.28 -0.1,-0.54 -0.28,-0.72 L 14.94,12.5 15.72,11.72 C 15.9,11.53 16,11.27 16,11 v -1 h -1 c -0.28,0 -0.54,0.1 -0.72,0.28 L 13.5,11.06 12.72,10.28 C 12.54,10.1 12.28,10 12,10 Z"
         style="fill:currentColor"
         id="path2-5" /></g></g></svg>
