<?xml version="1.0" encoding="UTF-8" standalone="no"?>
<svg
   width="16"
   height="16"
   version="1.1"
   id="svg2"
   sodipodi:docname="poweron.svg"
   xml:space="preserve"
   inkscape:version="1.4 (e7c3feb100, 2024-10-09)"
   xmlns:inkscape="http://www.inkscape.org/namespaces/inkscape"
   xmlns:sodipodi="http://sodipodi.sourceforge.net/DTD/sodipodi-0.dtd"
   xmlns="http://www.w3.org/2000/svg"
   xmlns:svg="http://www.w3.org/2000/svg"><defs
     id="defs2" /><sodipodi:namedview
     id="namedview2"
     pagecolor="#ffffff"
     bordercolor="#000000"
     borderopacity="0.25"
     inkscape:showpageshadow="2"
     inkscape:pageopacity="0.0"
     inkscape:pagecheckerboard="0"
     inkscape:deskcolor="#d1d1d1"
     inkscape:zoom="37.8125"
     inkscape:cx="11.266116"
     inkscape:cy="8.6214876"
     inkscape:window-width="1595"
     inkscape:window-height="1377"
     inkscape:window-x="0"
     inkscape:window-y="0"
     inkscape:window-maximized="0"
     inkscape:current-layer="svg2" /><g
     id="g3"><rect
       style="fill:#8e8e8e"
       width="10"
       height="12.8"
       x="3"
       y="3.2"
       rx=".833"
       ry=".8"
       id="rect1" /><path
       style="fill:#595959"
       d="m 0,12 v 1.2 C 0,13.6432 0.3568,14 0.8,14 H 15.2 C 15.6432,14 16,13.6432 16,13.2 V 12 Z"
       id="path1" /><path
       style="fill:#333333"
       d="M 0.8,0.99999976 C 0.3568,0.99999976 0,1.3567998 0,1.7999998 V 12 H 16 V 1.7999998 c 0,-0.4432 -0.3568,-0.80000004 -0.8,-0.80000004 z"
       id="path2" /></g><g
     id="g2"
     transform="matrix(0.22882384,0,0,0.22882384,8.6823922,8.4489639)"><rect
       style="opacity:0.2"
       width="28"
       height="28"
       x="2"
       y="3"
       rx="14"
       ry="14"
       id="rect1-3" /><rect
       style="fill:#3cff4e;fill-opacity:1"
       width="28"
       height="28"
       x="2"
       y="2"
       rx="14"
       ry="14"
       id="rect2" /><circle
       style="opacity:0.1"
       cx="16"
       cy="17"
       r="11"
       id="circle2" /><circle
       style="fill:#03b32e;fill-opacity:1"
       cx="16"
       cy="16"
       r="11"
       id="circle3" /><path
       style="opacity:0.2"
       d="M 12.840939,12.000216 A 0.82198326,0.81066576 0 0 0 12,12.811271 v 8.378305 a 0.82198326,0.81066576 0 0 0 1.232833,0.701896 l 3.678254,-2.094021 3.678252,-2.095076 a 0.82198326,0.81066576 0 0 0 0,-1.403737 L 16.911144,14.203229 13.232946,12.10893 a 0.82198326,0.81066576 0 0 0 -0.392063,-0.108881 z"
       id="path3" /><path
       style="fill:#ffffff"
       d="M 12.840939,11.000216 A 0.82198326,0.81066576 0 0 0 12,11.811271 v 8.378305 a 0.82198326,0.81066576 0 0 0 1.232833,0.701896 l 3.678254,-2.094021 3.678252,-2.095076 a 0.82198326,0.81066576 0 0 0 0,-1.403737 L 16.911144,13.203229 13.232946,11.10893 a 0.82198326,0.81066576 0 0 0 -0.392063,-0.108881 z"
       id="path4" /><path
       style="opacity:0.2;fill:#ffffff"
       d="M 16,2 C 8.244,2 2,8.244 2,16 2,16.168842 2.019521,16.33264 2.025391,16.5 2.2891326,8.9794325 8.4128418,3 16,3 23.587158,3 29.710867,8.9794325 29.974609,16.5 29.980479,16.33264 30,16.168842 30,16 30,8.244 23.756,2 16,2 Z"
       id="path5" /></g></svg>
