<?xml version="1.0" encoding="UTF-8" standalone="no"?>
<!-- Created with Inkscape (http://www.inkscape.org/) -->

<svg
   version="1.0"
   width="24"
   height="24"
   id="svg2475"
   inkscape:version="1.4 (e7c3feb100, 2024-10-09)"
   sodipodi:docname="restart.svg"
   xml:space="preserve"
   xmlns:inkscape="http://www.inkscape.org/namespaces/inkscape"
   xmlns:sodipodi="http://sodipodi.sourceforge.net/DTD/sodipodi-0.dtd"
   xmlns:xlink="http://www.w3.org/1999/xlink"
   xmlns="http://www.w3.org/2000/svg"
   xmlns:svg="http://www.w3.org/2000/svg"
   xmlns:rdf="http://www.w3.org/1999/02/22-rdf-syntax-ns#"
   xmlns:cc="http://creativecommons.org/ns#"
   xmlns:dc="http://purl.org/dc/elements/1.1/"><metadata
     id="metadata35"><rdf:RDF><cc:Work
         rdf:about=""><dc:format>image/svg+xml</dc:format><dc:type
           rdf:resource="http://purl.org/dc/dcmitype/StillImage" /></cc:Work></rdf:RDF></metadata><sodipodi:namedview
     pagecolor="#ffffff"
     bordercolor="#666666"
     borderopacity="1"
     objecttolerance="10"
     gridtolerance="10"
     guidetolerance="10"
     inkscape:pageopacity="0"
     inkscape:pageshadow="2"
     inkscape:window-width="1280"
     inkscape:window-height="1413"
     id="namedview33"
     showgrid="false"
     inkscape:zoom="19.666667"
     inkscape:cx="12.127119"
     inkscape:cy="10.779661"
     inkscape:window-x="0"
     inkscape:window-y="0"
     inkscape:window-maximized="0"
     inkscape:current-layer="svg2475"
     inkscape:showpageshadow="2"
     inkscape:pagecheckerboard="0"
     inkscape:deskcolor="#d1d1d1" /><defs
     id="defs2477"><inkscape:perspective
       sodipodi:type="inkscape:persp3d"
       inkscape:vp_x="0 : 12 : 1"
       inkscape:vp_y="0 : 1000 : 0"
       inkscape:vp_z="24 : 12 : 1"
       inkscape:persp3d-origin="12 : 8 : 1"
       id="perspective37" /><linearGradient
       id="linearGradient3705"><stop
         id="stop3707"
         style="stop-color:white;stop-opacity:1"
         offset="0" /><stop
         id="stop3713"
         style="stop-color:black;stop-opacity:1"
         offset="0.51867628" /><stop
         id="stop3709"
         style="stop-color:black;stop-opacity:1"
         offset="1" /></linearGradient><linearGradient
       id="linearGradient4873"><stop
         id="stop4875"
         style="stop-color:white;stop-opacity:1"
         offset="0" /><stop
         id="stop4877"
         style="stop-color:white;stop-opacity:0"
         offset="1" /></linearGradient><linearGradient
       x1="21.628975"
       y1="2.1102102"
       x2="22.245434"
       y2="43.366352"
       id="linearGradient2901"
       xlink:href="#linearGradient4873"
       gradientUnits="userSpaceOnUse"
       gradientTransform="matrix(0.4873978,0,0,0.4781595,-0.345297,0.700712)" /><linearGradient
       x1="13.610957"
       y1="9.8964491"
       x2="15.372947"
       y2="22.599676"
       id="linearGradient2904"
       xlink:href="#linearGradient2264"
       gradientUnits="userSpaceOnUse"
       gradientTransform="matrix(0.4873978,0,0,0.4781595,-0.345297,0.700712)" /><linearGradient
       x1="15.372947"
       y1="5.0471625"
       x2="15.372947"
       y2="22.599676"
       id="linearGradient2918"
       xlink:href="#linearGradient3533"
       gradientUnits="userSpaceOnUse"
       gradientTransform="matrix(-0.4873978,0,0,-0.4781595,23.842396,23.296914)" /><linearGradient
       x1="21.628975"
       y1="2.1102102"
       x2="22.245434"
       y2="43.366352"
       id="linearGradient2926"
       xlink:href="#linearGradient4873"
       gradientUnits="userSpaceOnUse"
       gradientTransform="matrix(-0.4873978,0,0,-0.4781595,23.842396,23.296914)" /><linearGradient
       x1="18"
       y1="17"
       x2="21"
       y2="12"
       id="linearGradient3743"
       xlink:href="#linearGradient3705"
       gradientUnits="userSpaceOnUse" /><mask
       id="mask3739"><rect
         width="22"
         height="12"
         x="1"
         y="12"
         id="rect3741"
         style="fill:url(#linearGradient3743);fill-opacity:1;stroke:none" /></mask><linearGradient
       x1="18"
       y1="17"
       x2="21"
       y2="12"
       id="linearGradient3753"
       xlink:href="#linearGradient3705"
       gradientUnits="userSpaceOnUse"
       gradientTransform="translate(-24,-24)" /><mask
       id="mask3749"><rect
         width="22"
         height="12"
         x="-23"
         y="-12"
         transform="scale(-1,-1)"
         id="rect3751"
         style="fill:url(#linearGradient3753);fill-opacity:1;stroke:none" /></mask><linearGradient
       id="linearGradient3533"><stop
         id="stop3535"
         style="stop-color:#ecb56c;stop-opacity:1;"
         offset="0" /><stop
         id="stop3545"
         style="stop-color:#e86225;stop-opacity:1;"
         offset="1" /></linearGradient><linearGradient
       id="linearGradient2264"><stop
         id="stop2266"
         style="stop-color:#d7e866;stop-opacity:1"
         offset="0" /><stop
         id="stop2268"
         style="stop-color:#8cab2a;stop-opacity:1"
         offset="1" /></linearGradient></defs><g
     id="g1"
     transform="matrix(1.1562629,0,0,1.1562629,-1.8210004,-2.1726953)"><circle
       style="opacity:0.2"
       cx="12"
       cy="12.5"
       r="10"
       id="circle1" /><circle
       style="fill:#ff9800"
       cx="12"
       cy="12"
       r="10"
       id="circle2" /><path
       style="opacity:0.2;fill:#ffffff"
       d="m 12,2 a 10,10 0 0 0 -10,10 10,10 0 0 0 0.01075,0.291 10,10 0 0 1 9.989,-9.791 10,10 0 0 1 9.9895,9.709 10,10 0 0 0 0.0105,-0.209 10,10 0 0 0 -10,-10 z"
       id="path2" /><path
       style="opacity:0.2"
       d="m 12.015625,5.4998723 a 1.0001,1.0001 0 1 0 -0.0039,2 c 1.397784,0.0024 2.73055,0.5894066 3.675781,1.6191406 0.850536,0.9265721 1.310887,2.1335001 1.310547,3.3808601 h -1.994141 l 1.5,2 1.5,2 1.5,-2 1.5,-2 H 18.998047 C 18.997824,10.754526 18.349711,9.0613963 17.160156,7.7654973 15.837636,6.3247457 13.971338,5.5032853 12.015625,5.4998723 Z m -6.015625,3 -1.5,2.0000007 -1.5,2 h 2.0058594 c 2.232e-4,1.745347 0.6483363,3.438476 1.8378906,4.734375 1.3225204,1.440752 3.188818,2.262212 5.144531,2.265625 a 1.0001,1.0001 0 1 0 0.0039,-2 C 10.594406,17.497433 9.2616374,16.910466 8.3164062,15.880732 7.4658699,14.95416 7.0055189,13.747233 7.0058594,12.499873 H 9 l -1.5,-2 z"
       id="path3" /><path
       style="fill:#ffffff"
       d="m 12.015625,5 a 1.0001,1.0001 0 1 0 -0.0039,2 C 13.409503,7.0024 14.742269,7.5894066 15.6875,8.6191406 16.538036,9.5457126 16.998387,10.75264 16.998047,12 h -1.994141 l 1.5,2 1.5,2 1.5,-2 1.5,-2 H 18.998047 C 18.997824,10.254653 18.349711,8.561524 17.160156,7.265625 15.837636,5.8248734 13.971338,5.003413 12.015625,5 Z M 6,8 4.5,10 3,12 h 2.0058594 c 2.232e-4,1.745347 0.6483363,3.438476 1.8378906,4.734375 1.3225204,1.440752 3.188818,2.262212 5.144531,2.265625 a 1.0001,1.0001 0 1 0 0.0039,-2 C 10.594406,16.99756 9.2616374,16.410593 8.3164062,15.380859 7.4658699,14.454287 7.0055189,13.24736 7.0058594,12 H 9 L 7.5,10 Z"
       id="path4" /></g></svg>
