<?xml version="1.0" encoding="UTF-8" standalone="no"?>
<svg
   width="24"
   height="24"
   version="1"
   id="svg4"
   sodipodi:docname="restart.svg"
   inkscape:version="1.4 (e7c3feb100, 2024-10-09)"
   xmlns:inkscape="http://www.inkscape.org/namespaces/inkscape"
   xmlns:sodipodi="http://sodipodi.sourceforge.net/DTD/sodipodi-0.dtd"
   xmlns="http://www.w3.org/2000/svg"
   xmlns:svg="http://www.w3.org/2000/svg">
  <defs
     id="defs4" />
  <sodipodi:namedview
     id="namedview4"
     pagecolor="#ffffff"
     bordercolor="#000000"
     borderopacity="0.25"
     inkscape:showpageshadow="2"
     inkscape:pageopacity="0.0"
     inkscape:pagecheckerboard="0"
     inkscape:deskcolor="#d1d1d1"
     inkscape:zoom="50.416667"
     inkscape:cx="12"
     inkscape:cy="12"
     inkscape:window-width="1595"
     inkscape:window-height="1377"
     inkscape:window-x="0"
     inkscape:window-y="0"
     inkscape:window-maximized="0"
     inkscape:current-layer="svg4" />
  <circle
     style="opacity:0.2"
     cx="12"
     cy="12.5"
     r="10"
     id="circle1" />
  <circle
     style="fill:#ff9800"
     cx="12"
     cy="12"
     r="10"
     id="circle2" />
  <path
     style="opacity:0.2;fill:#ffffff"
     d="m 12,2 a 10,10 0 0 0 -10,10 10,10 0 0 0 0.01075,0.291 10,10 0 0 1 9.989,-9.791 10,10 0 0 1 9.9895,9.709 10,10 0 0 0 0.0105,-0.209 10,10 0 0 0 -10,-10 z"
     id="path2" />
  <path
     style="opacity:0.2"
     d="m 12.015625,5.4998723 a 1.0001,1.0001 0 1 0 -0.0039,2 c 1.397784,0.0024 2.73055,0.5894066 3.675781,1.6191406 0.850536,0.9265721 1.310887,2.1335001 1.310547,3.3808601 h -1.994141 l 1.5,2 1.5,2 1.5,-2 1.5,-2 H 18.998047 C 18.997824,10.754526 18.349711,9.0613963 17.160156,7.7654973 15.837636,6.3247457 13.971338,5.5032853 12.015625,5.4998723 Z m -6.015625,3 -1.5,2.0000007 -1.5,2 h 2.0058594 c 2.232e-4,1.745347 0.6483363,3.438476 1.8378906,4.734375 1.3225204,1.440752 3.188818,2.262212 5.144531,2.265625 a 1.0001,1.0001 0 1 0 0.0039,-2 C 10.594406,17.497433 9.2616374,16.910466 8.3164062,15.880732 7.4658699,14.95416 7.0055189,13.747233 7.0058594,12.499873 H 9 l -1.5,-2 z"
     id="path3" />
  <path
     style="fill:#ffffff"
     d="M 12.015625 5 A 1.0001 1.0001 0 1 0 12.011719 7 C 13.409503 7.0024 14.742269 7.5894066 15.6875 8.6191406 C 16.538036 9.5457126 16.998387 10.75264 16.998047 12 L 15.003906 12 L 16.503906 14 L 18.003906 16 L 19.503906 14 L 21.003906 12 L 18.998047 12 C 18.997824 10.254653 18.349711 8.561524 17.160156 7.265625 C 15.837636 5.8248734 13.971338 5.003413 12.015625 5 z M 6 8 L 4.5 10 L 3 12 L 5.0058594 12 C 5.0060826 13.745347 5.6541957 15.438476 6.84375 16.734375 C 8.1662704 18.175127 10.032568 18.996587 11.988281 19 A 1.0001 1.0001 0 1 0 11.992188 17 C 10.594406 16.99756 9.2616374 16.410593 8.3164062 15.380859 C 7.4658699 14.454287 7.0055189 13.24736 7.0058594 12 L 9 12 L 7.5 10 L 6 8 z"
     id="path4" />
</svg>
