<?xml version="1.0" encoding="UTF-8" standalone="no"?>
<svg
   width="22"
   height="22"
   version="1"
   id="svg4"
   sodipodi:docname="shutdown.svg"
   inkscape:version="1.4 (e7c3feb100, 2024-10-09)"
   xmlns:inkscape="http://www.inkscape.org/namespaces/inkscape"
   xmlns:sodipodi="http://sodipodi.sourceforge.net/DTD/sodipodi-0.dtd"
   xmlns="http://www.w3.org/2000/svg"
   xmlns:svg="http://www.w3.org/2000/svg">
  <defs
     id="defs4" />
  <sodipodi:namedview
     id="namedview4"
     pagecolor="#ffffff"
     bordercolor="#000000"
     borderopacity="0.25"
     inkscape:showpageshadow="2"
     inkscape:pageopacity="0.0"
     inkscape:pagecheckerboard="0"
     inkscape:deskcolor="#d1d1d1"
     inkscape:zoom="55"
     inkscape:cx="11.018182"
     inkscape:cy="10.990909"
     inkscape:window-width="1595"
     inkscape:window-height="1080"
     inkscape:window-x="0"
     inkscape:window-y="0"
     inkscape:window-maximized="0"
     inkscape:current-layer="svg4" />
  <circle
     style="fill:#f44336"
     cx="11"
     cy="11"
     r="10"
     id="circle1" />
  <path
     style="opacity:0.2;fill:#ffffff"
     d="m 11,1 a 10,10 0 0 0 -10,10 10,10 0 0 0 0.01075,0.291 10,10 0 0 1 9.989,-9.791 10,10 0 0 1 9.9895,9.709 10,10 0 0 0 0.0105,-0.209 10,10 0 0 0 -10,-10 z"
     id="path1" />
  <path
     style="opacity:0.2"
     d="M 20.9895,11.209 A 10,10 0 0 1 11,21 10,10 0 0 1 1.011,11.291 10,10 0 0 0 1,11.5 a 10,10 0 0 0 10,10 10,10 0 0 0 10,-10 10,10 0 0 0 -0.0105,-0.291 z"
     id="path2" />
  <path
     style="opacity:0.2"
     d="M 10.985352,3.4999035 A 1.0001,0.9966092 0 0 0 10,4.509669 v 5.979493 a 1.0001,0.9966092 0 1 0 2,0 V 4.509669 A 1.0001,0.9966092 0 0 0 10.985352,3.4999035 Z M 7.628906,5.50088 A 1.0001608,1.0010221 0 0 0 7.095703,5.677638 c -2.5474265,1.713274 -3.6839545,4.900139 -2.796875,7.84082 0.88708,2.940681 3.594961,4.965362 6.664063,4.981446 3.069101,0.01609 5.798997,-1.979911 6.716796,-4.911133 0.917799,-2.931223 -0.185483,-6.129262 -2.714843,-7.869141 a 1.0001608,1.0010221 0 1 0 -1.132813,1.6484375 c 1.812621,1.246854 2.597177,3.5214635 1.939453,5.6220705 -0.657724,2.100608 -2.598435,3.519339 -4.797851,3.507813 C 8.7742165,16.486426 6.849577,15.047719 6.213867,12.940333 5.5781575,10.832947 6.38537,8.566557 8.2109375,7.3387705 A 1.0001608,1.0010221 0 0 0 7.628906,5.50088 Z"
     id="path3" />
  <path
     style="fill:#ffffff"
     d="M 10.985352,3 A 1.0001,0.9966092 0 0 0 10,4.0097655 V 9.989258 a 1.0001,0.9966092 0 1 0 2,0 V 4.0097655 A 1.0001,0.9966092 0 0 0 10.985352,3 Z M 7.628906,5.0009765 A 1.0001608,1.0010221 0 0 0 7.095703,5.1777345 C 4.5482765,6.8910085 3.4117485,10.077874 4.298828,13.018555 5.185908,15.959236 7.893789,17.983916 10.962891,18 c 3.069101,0.01609 5.798997,-1.979911 6.716796,-4.911133 0.917799,-2.931223 -0.185483,-6.1292615 -2.714843,-7.8691405 A 1.0001608,1.0010221 0 1 0 13.832031,6.868164 c 1.812621,1.246854 2.597177,3.521463 1.939453,5.622071 -0.657724,2.100607 -2.598435,3.519338 -4.797851,3.507812 C 8.7742165,15.986522 6.849577,14.547816 6.213867,12.44043 5.5781575,10.333043 6.38537,8.0666535 8.2109375,6.838867 A 1.0001608,1.0010221 0 0 0 7.628906,5.0009765 Z"
     id="path4" />
</svg>
