<?xml version="1.0" encoding="UTF-8" standalone="no"?>
<!-- Created with Inkscape (http://www.inkscape.org/) -->

<svg
   version="1.0"
   width="24.000002"
   height="24"
   id="svg3479"
   inkscape:version="1.4 (e7c3feb100, 2024-10-09)"
   sodipodi:docname="shutdown.svg"
   xml:space="preserve"
   xmlns:inkscape="http://www.inkscape.org/namespaces/inkscape"
   xmlns:sodipodi="http://sodipodi.sourceforge.net/DTD/sodipodi-0.dtd"
   xmlns:xlink="http://www.w3.org/1999/xlink"
   xmlns="http://www.w3.org/2000/svg"
   xmlns:svg="http://www.w3.org/2000/svg"
   xmlns:rdf="http://www.w3.org/1999/02/22-rdf-syntax-ns#"
   xmlns:cc="http://creativecommons.org/ns#"
   xmlns:dc="http://purl.org/dc/elements/1.1/"><metadata
     id="metadata44"><rdf:RDF><cc:Work
         rdf:about=""><dc:format>image/svg+xml</dc:format><dc:type
           rdf:resource="http://purl.org/dc/dcmitype/StillImage" /></cc:Work></rdf:RDF></metadata><sodipodi:namedview
     pagecolor="#ffffff"
     bordercolor="#666666"
     borderopacity="1"
     objecttolerance="10"
     gridtolerance="10"
     guidetolerance="10"
     inkscape:pageopacity="0"
     inkscape:pageshadow="2"
     inkscape:window-width="1280"
     inkscape:window-height="1413"
     id="namedview42"
     showgrid="false"
     inkscape:zoom="9.8333333"
     inkscape:cx="17.033898"
     inkscape:cy="8.5423729"
     inkscape:window-x="0"
     inkscape:window-y="0"
     inkscape:window-maximized="0"
     inkscape:current-layer="svg3479"
     inkscape:showpageshadow="2"
     inkscape:pagecheckerboard="0"
     inkscape:deskcolor="#d1d1d1" /><defs
     id="defs3481"><inkscape:perspective
       sodipodi:type="inkscape:persp3d"
       inkscape:vp_x="0 : 12 : 1"
       inkscape:vp_y="0 : 1000 : 0"
       inkscape:vp_z="24 : 12 : 1"
       inkscape:persp3d-origin="12 : 8 : 1"
       id="perspective46" /><linearGradient
       id="linearGradient3702-501-757"><stop
         id="stop2895"
         style="stop-color:#181818;stop-opacity:0"
         offset="0" /><stop
         id="stop2897"
         style="stop-color:#181818;stop-opacity:1"
         offset="0.5" /><stop
         id="stop2899"
         style="stop-color:#181818;stop-opacity:0"
         offset="1" /></linearGradient><linearGradient
       x1="25.058096"
       y1="47.027729"
       x2="25.058096"
       y2="39.999443"
       id="linearGradient2893"
       xlink:href="#linearGradient3702-501-757"
       gradientUnits="userSpaceOnUse" /><linearGradient
       id="linearGradient3688-464-309"><stop
         id="stop2889"
         style="stop-color:#181818;stop-opacity:1"
         offset="0" /><stop
         id="stop2891"
         style="stop-color:#181818;stop-opacity:0"
         offset="1" /></linearGradient><radialGradient
       cx="4.9929786"
       cy="43.5"
       r="2.5"
       fx="4.9929786"
       fy="43.5"
       id="radialGradient2891"
       xlink:href="#linearGradient3688-464-309"
       gradientUnits="userSpaceOnUse"
       gradientTransform="matrix(2.003784,0,0,1.4,-20.01187,-104.4)" /><linearGradient
       id="linearGradient3688-166-749"><stop
         id="stop2883"
         style="stop-color:#181818;stop-opacity:1"
         offset="0" /><stop
         id="stop2885"
         style="stop-color:#181818;stop-opacity:0"
         offset="1" /></linearGradient><radialGradient
       cx="4.9929786"
       cy="43.5"
       r="2.5"
       fx="4.9929786"
       fy="43.5"
       id="radialGradient2889"
       xlink:href="#linearGradient3688-166-749"
       gradientUnits="userSpaceOnUse"
       gradientTransform="matrix(2.003784,0,0,1.4,27.98813,-17.4)" /><linearGradient
       id="linearGradient2490"><stop
         id="stop2492"
         style="stop-color:#791235;stop-opacity:1"
         offset="0" /><stop
         id="stop2494"
         style="stop-color:#dd3b27;stop-opacity:1"
         offset="1" /></linearGradient><linearGradient
       x1="24"
       y1="44"
       x2="24"
       y2="3.8990016"
       id="linearGradient2698"
       xlink:href="#linearGradient2490"
       gradientUnits="userSpaceOnUse"
       gradientTransform="matrix(0.58741278,0,0,0.58741285,-7.097909,-3.0977194)" /><linearGradient
       id="linearGradient3242"><stop
         id="stop3244"
         style="stop-color:#f89b7e;stop-opacity:1"
         offset="0" /><stop
         id="stop3246"
         style="stop-color:#e35d4f;stop-opacity:1"
         offset="0.26238" /><stop
         id="stop3248"
         style="stop-color:#c6262e;stop-opacity:1"
         offset="0.66093999" /><stop
         id="stop3250"
         style="stop-color:#690b2c;stop-opacity:1"
         offset="1" /></linearGradient><radialGradient
       cx="12.011247"
       cy="10.992844"
       r="19.99999"
       fx="12.011247"
       fy="10.992844"
       id="radialGradient2696"
       xlink:href="#linearGradient3242"
       gradientUnits="userSpaceOnUse"
       gradientTransform="matrix(3.3095979e-8,0.98690234,-1.4236144,0,19.029273,-7.1474454)" /><linearGradient
       id="linearGradient3308-4-6-931-761-6"><stop
         id="stop2919-1"
         style="stop-color:white;stop-opacity:1"
         offset="0" /><stop
         id="stop2921-0"
         style="stop-color:white;stop-opacity:0"
         offset="1" /></linearGradient><linearGradient
       x1="23.99999"
       y1="4.999989"
       x2="23.99999"
       y2="43"
       id="linearGradient2688"
       xlink:href="#linearGradient3308-4-6-931-761-6"
       gradientUnits="userSpaceOnUse"
       gradientTransform="matrix(0.56019698,0,0,0.56018697,-6.4447227,-2.4442986)" /></defs><g
     id="g1"
     transform="matrix(1.1587433,0,0,1.1587433,-1.8259612,-2.0929103)"><circle
       style="fill:#f44336"
       cx="12"
       cy="12"
       r="10"
       id="circle1" /><path
       style="opacity:0.2;fill:#ffffff"
       d="m 12,2 a 10,10 0 0 0 -10,10 10,10 0 0 0 0.01075,0.291 10,10 0 0 1 9.989,-9.791 10,10 0 0 1 9.9895,9.709 10,10 0 0 0 0.0105,-0.209 10,10 0 0 0 -10,-10 z"
       id="path1" /><path
       style="opacity:0.2"
       d="M 21.9895,12.209 A 10,10 0 0 1 12,22 10,10 0 0 1 2.011,12.291 10,10 0 0 0 2,12.5 a 10,10 0 0 0 10,10 10,10 0 0 0 10,-10 10,10 0 0 0 -0.0105,-0.291 z"
       id="path2" /><path
       style="opacity:0.2"
       d="M 11.985352,4.4999035 A 1.0001,0.9966092 0 0 0 11,5.509669 v 5.979493 a 1.0001,0.9966092 0 1 0 2,0 V 5.509669 A 1.0001,0.9966092 0 0 0 11.985352,4.4999035 Z M 8.628906,6.50088 A 1.0001608,1.0010221 0 0 0 8.095703,6.677638 c -2.5474265,1.713274 -3.6839545,4.900139 -2.796875,7.84082 0.88708,2.940681 3.594961,4.965362 6.664063,4.981446 3.069101,0.01609 5.798997,-1.979911 6.716796,-4.911133 0.917799,-2.931223 -0.185483,-6.129262 -2.714843,-7.869141 a 1.0001608,1.0010221 0 1 0 -1.132813,1.6484375 c 1.812621,1.246854 2.597177,3.5214635 1.939453,5.6220705 -0.657724,2.100608 -2.598435,3.519339 -4.797851,3.507813 C 9.7742165,17.486426 7.849577,16.047719 7.213867,13.940333 6.5781575,11.832947 7.38537,9.566557 9.2109375,8.3387705 A 1.0001608,1.0010221 0 0 0 8.628906,6.50088 Z"
       id="path3" /><path
       style="fill:#ffffff"
       d="M 11.985352,4 A 1.0001,0.9966092 0 0 0 11,5.0097655 v 5.9794925 a 1.0001,0.9966092 0 1 0 2,0 V 5.0097655 A 1.0001,0.9966092 0 0 0 11.985352,4 Z M 8.628906,6.0009765 A 1.0001608,1.0010221 0 0 0 8.095703,6.1777345 C 5.5482765,7.8910085 4.4117485,11.077874 5.298828,14.018555 6.185908,16.959236 8.893789,18.983916 11.962891,19 c 3.069101,0.01609 5.798997,-1.979911 6.716796,-4.911133 0.917799,-2.931223 -0.185483,-6.1292615 -2.714843,-7.8691405 A 1.0001608,1.0010221 0 1 0 14.832031,7.868164 c 1.812621,1.246854 2.597177,3.521463 1.939453,5.622071 -0.657724,2.100607 -2.598435,3.519338 -4.797851,3.507812 C 9.7742165,16.986522 7.849577,15.547816 7.213867,13.44043 6.5781575,11.333043 7.38537,9.0666535 9.2109375,7.838867 A 1.0001608,1.0010221 0 0 0 8.628906,6.0009765 Z"
       id="path4" /></g></svg>
