<?xml version="1.0" encoding="UTF-8" standalone="no"?>
<svg
   width="16"
   height="16"
   version="1.1"
   id="svg2"
   sodipodi:docname="unlock-screen.svg"
   xml:space="preserve"
   inkscape:version="1.4 (e7c3feb100, 2024-10-09)"
   xmlns:inkscape="http://www.inkscape.org/namespaces/inkscape"
   xmlns:sodipodi="http://sodipodi.sourceforge.net/DTD/sodipodi-0.dtd"
   xmlns="http://www.w3.org/2000/svg"
   xmlns:svg="http://www.w3.org/2000/svg"><defs
     id="defs2" /><sodipodi:namedview
     id="namedview2"
     pagecolor="#ffffff"
     bordercolor="#000000"
     borderopacity="0.25"
     inkscape:showpageshadow="2"
     inkscape:pageopacity="0.0"
     inkscape:pagecheckerboard="0"
     inkscape:deskcolor="#d1d1d1"
     inkscape:zoom="53.47495"
     inkscape:cx="8.5273572"
     inkscape:cy="7.7886936"
     inkscape:window-width="1595"
     inkscape:window-height="1080"
     inkscape:window-x="0"
     inkscape:window-y="0"
     inkscape:window-maximized="0"
     inkscape:current-layer="layer2" /><g
     inkscape:groupmode="layer"
     id="layer1"
     inkscape:label="Layer 1"><g
       id="g2"><rect
         style="fill:#8e8e8e"
         width="10"
         height="12.8"
         x="3"
         y="3.2"
         rx=".833"
         ry=".8"
         id="rect1" /><path
         style="fill:#595959"
         d="m 0,12 v 1.2 C 0,13.6432 0.3568,14 0.8,14 H 15.2 C 15.6432,14 16,13.6432 16,13.2 V 12 Z"
         id="path1" /><path
         style="fill:#333333"
         d="M 0.8,0.99999976 C 0.3568,0.99999976 0,1.3567998 0,1.7999998 V 12 H 16 V 1.7999998 c 0,-0.4432 -0.3568,-0.80000004 -0.8,-0.80000004 z"
         id="path2" /></g></g><g
     inkscape:groupmode="layer"
     id="layer2"
     inkscape:label="Layer 2"><g
       id="g4"
       transform="matrix(0.59927833,0,0,0.59927833,3.3081569,1.6910455)"><circle
         style="fill:#455a64"
         cx="8"
         cy="8"
         r="7"
         id="circle1-6" /><path
         style="fill:#ffffff"
         d="m 8,3.0001406 c -1.318273,0 -2.4877238,0.6889204 -2.8632812,2 h 1.09375 c 0.3864704,-0.6933045 1.1836232,-1 1.7695312,-1 0.8000001,0 2,0.5498156 2,1.9160156 V 7.0001406 H 8 6 5 4.6660156 C 4.2966823,7.0001406 4,7.366145 4,7.7618594 V 11.285156 C 4,11.68087 4.2966823,12 4.6660156,12 H 11.333984 C 11.703318,12 12,11.68087 12,11.285156 V 7.7618594 C 12,7.3661451 11.657204,7.0001406 11.333984,7.0001406 H 11 V 5.9161562 C 11,3.9994919 9.6000001,3.0001406 8,3.0001406 Z"
         id="path1-7" /></g></g></svg>
