<?xml version="1.0" encoding="UTF-8" standalone="no"?>
<svg
   width="22"
   height="22"
   version="1"
   id="svg5"
   sodipodi:docname="unmute.svg"
   inkscape:version="1.4 (e7c3feb100, 2024-10-09)"
   xmlns:inkscape="http://www.inkscape.org/namespaces/inkscape"
   xmlns:sodipodi="http://sodipodi.sourceforge.net/DTD/sodipodi-0.dtd"
   xmlns="http://www.w3.org/2000/svg"
   xmlns:svg="http://www.w3.org/2000/svg">
  <defs
     id="defs5" />
  <sodipodi:namedview
     id="namedview5"
     pagecolor="#ffffff"
     bordercolor="#000000"
     borderopacity="0.25"
     inkscape:showpageshadow="2"
     inkscape:pageopacity="0.0"
     inkscape:pagecheckerboard="0"
     inkscape:deskcolor="#d1d1d1"
     inkscape:zoom="27.5"
     inkscape:cx="9"
     inkscape:cy="11.963636"
     inkscape:window-width="1595"
     inkscape:window-height="1377"
     inkscape:window-x="0"
     inkscape:window-y="0"
     inkscape:window-maximized="0"
     inkscape:current-layer="svg5" />
  <path
     style="opacity:0.2"
     d="m 13,1.8712348 v 2.0742187 c 3.365046,1.0474135 5.792969,4.0421976 5.792969,7.5546875 0,3.51249 -2.427923,6.507274 -5.792969,7.554688 V 21.131 c 4.587578,-1.106071 8,-4.972682 8,-9.630859 0,-4.6581764 -3.412422,-8.5228352 -8,-9.6289062 z m -2,0.1289062 -5.7128906,5.5 H 1.5 c -0.5,0 -0.5,0.5 -0.5,0.5 v 7 c 0,0 0,0.5 0.5,0.5 H 5.2871094 L 11,21.000141 Z m 2,5.3613281 v 8.2773439 c 1.77753,-0.799999 3,-2.345568 3,-4.138672 0,-1.7931034 -1.205701,-3.3386714 -3,-4.1386719 z"
     id="path1" />
  <path
     style="fill:#a0a0a4"
     d="M 21,11 C 21,6.3418236 17.587578,2.4761883 13,1.3701173 V 3.4453126 C 16.365046,4.4927261 18.792708,7.4875101 18.792708,11 c 0,3.51249 -2.427662,6.507274 -5.792708,7.554688 v 2.075195 C 17.587578,19.523812 21,15.658177 21,11 Z"
     id="path2" />
  <path
     style="fill:#a0a0a4"
     d="M 16,11 C 16,9.2068966 14.794299,7.6623051 13,6.8623046 V 15.137696 C 14.77753,14.337697 16,12.793104 16,11 Z"
     id="path3" />
  <path
     style="fill:#a0a0a4"
     d="m 11,1.5000001 -5.713867,5.5 H 1.5 c -0.5,0 -0.5,0.5 -0.5,0.5 V 14.5 c 0,0 0,0.5 0.5,0.5 H 5.286133 L 11,20.5 Z"
     id="path4" />
  <path
     style="fill:#ffffff;opacity:0.1"
     d="M 13 1.3710938 L 13 1.8710938 C 17.504539 2.9571439 20.867701 6.7049796 20.988281 11.25 C 20.990504 11.166213 21 11.084317 21 11 C 21 6.3418236 17.587578 2.4771648 13 1.3710938 z M 11 1.5 L 5.2871094 7 L 1.5 7 C 1 7 1 7.5 1 7.5 L 1 8 C 1 8 1 7.5 1.5 7.5 L 5.2871094 7.5 L 11 2 L 11 1.5 z M 13 6.8613281 L 13 7.3613281 C 14.708022 8.1228614 15.869499 9.5629663 15.978516 11.246094 C 15.983758 11.163654 16 11.083565 16 11 C 16 9.2068966 14.794299 7.6613286 13 6.8613281 z M 18.783203 11.25 C 18.670529 14.653365 16.284456 17.532358 13 18.554688 L 13 19.054688 C 16.365046 18.007274 18.792969 15.01249 18.792969 11.5 C 18.792969 11.415879 18.785968 11.333508 18.783203 11.25 z"
     id="path5" />
</svg>
