<?xml version="1.0" encoding="UTF-8" standalone="no"?>
<svg
   width="48"
   height="48"
   version="1.1"
   id="svg1"
   sodipodi:docname="lock.svg"
   inkscape:version="1.4 (e7c3feb100, 2024-10-09)"
   xmlns:inkscape="http://www.inkscape.org/namespaces/inkscape"
   xmlns:sodipodi="http://sodipodi.sourceforge.net/DTD/sodipodi-0.dtd"
   xmlns="http://www.w3.org/2000/svg"
   xmlns:svg="http://www.w3.org/2000/svg">
  <defs
     id="defs1" />
  <sodipodi:namedview
     id="namedview1"
     pagecolor="#ffffff"
     bordercolor="#000000"
     borderopacity="0.25"
     inkscape:showpageshadow="2"
     inkscape:pageopacity="0.0"
     inkscape:pagecheckerboard="0"
     inkscape:deskcolor="#d1d1d1"
     inkscape:zoom="17.824983"
     inkscape:cx="22.636767"
     inkscape:cy="27.209001"
     inkscape:window-width="1595"
     inkscape:window-height="1377"
     inkscape:window-x="0"
     inkscape:window-y="0"
     inkscape:window-maximized="0"
     inkscape:current-layer="svg1" />
  <circle
     style="fill:#455a64"
     cx="24"
     cy="24"
     r="20"
     id="circle1" />
  <path
     style="fill:#ffffff"
     d="m 23.999998,11 c -4,0 -7,2.000006 -7,6.999994 v 3 h -1.333333 c -0.923333,0 -1.666667,0.750292 -1.666667,1.700006 V 33.285714 C 13.999998,34.235428 14.743332,35 15.666665,35 h 16.666667 c 0.923333,0 1.666667,-0.764572 1.666667,-1.714286 V 22.7 c 0,-0.949714 -0.743334,-1.700006 -1.666667,-1.700006 h -1.333333 v -3 c 0,-4.999988 -3,-6.999994 -7.000001,-6.999994 z m 0,3 c 2.000001,0 4.000001,0.999994 4.000001,3.999994 v 3 h -8.000001 v -3 c 0,-3 2,-3.999994 4,-3.999994 z"
     id="path1" />
</svg>
