<?xml version="1.0" encoding="UTF-8" standalone="no"?>
<!-- Created with Inkscape (http://www.inkscape.org/) -->

<svg
   id="svg2816"
   version="1.1"
   inkscape:version="1.4 (e7c3feb100, 2024-10-09)"
   width="381.07321"
   height="381.07321"
   sodipodi:docname="lock.svg"
   inkscape:output_extension="org.inkscape.output.svg.inkscape"
   xml:space="preserve"
   xmlns:inkscape="http://www.inkscape.org/namespaces/inkscape"
   xmlns:sodipodi="http://sodipodi.sourceforge.net/DTD/sodipodi-0.dtd"
   xmlns="http://www.w3.org/2000/svg"
   xmlns:svg="http://www.w3.org/2000/svg"
   xmlns:rdf="http://www.w3.org/1999/02/22-rdf-syntax-ns#"
   xmlns:cc="http://creativecommons.org/ns#"
   xmlns:dc="http://purl.org/dc/elements/1.1/"><metadata
     id="metadata2822"><rdf:RDF><cc:Work
         rdf:about=""><dc:format>image/svg+xml</dc:format><dc:type
           rdf:resource="http://purl.org/dc/dcmitype/StillImage" /><dc:title /></cc:Work></rdf:RDF></metadata><defs
     id="defs2820"><linearGradient
       id="linearGradient3915"><stop
         id="stop3917"
         offset="0"
         style="stop-color:#ffffff;stop-opacity:0;" /><stop
         style="stop-color:#787878;stop-opacity:0.09693877;"
         offset="0.23417722"
         id="stop3923" /><stop
         id="stop3919"
         offset="1"
         style="stop-color:#000000;stop-opacity:1;" /></linearGradient></defs><sodipodi:namedview
     pagecolor="#ffffff"
     bordercolor="#666666"
     borderopacity="1"
     objecttolerance="10"
     gridtolerance="10"
     guidetolerance="10"
     inkscape:pageopacity="0"
     inkscape:pageshadow="2"
     inkscape:window-width="1683"
     inkscape:window-height="1377"
     id="namedview2818"
     showgrid="false"
     inkscape:zoom="1.4571559"
     inkscape:cx="152.35158"
     inkscape:cy="159.90053"
     inkscape:window-x="0"
     inkscape:window-y="0"
     inkscape:window-maximized="0"
     inkscape:current-layer="svg2816"
     inkscape:showpageshadow="2"
     inkscape:pagecheckerboard="0"
     inkscape:deskcolor="#d1d1d1" /><g
     id="g1"
     transform="matrix(18.945918,0,0,18.945918,-35.833654,-37.498336)"><circle
       style="fill:#455a64"
       cx="12"
       cy="12"
       r="10"
       id="circle1" /><path
       style="fill:#ffffff"
       d="m 11.999999,5.0000005 c -2,0 -3.5,1.000003 -3.5,3.499997 V 9.999998 H 7.8333325 C 7.371666,9.999998 6.999999,10.375144 6.999999,10.85 v 5.292857 C 6.999999,16.617714 7.371666,17 7.8333325,17 h 8.3333335 c 0.461666,0 0.833333,-0.382286 0.833333,-0.857143 v -5.292856 c 0,-0.474857 -0.371667,-0.850003 -0.833333,-0.850003 H 15.5 V 8.4999975 c 0,-2.499994 -1.5,-3.499997 -3.500001,-3.499997 z m 0,1.5 C 13,6.5000005 14,6.9999975 14,8.4999975 V 9.999998 H 9.999999 V 8.4999975 c 0,-1.5 1,-1.999997 2,-1.999997 z"
       id="path1" /></g></svg>
